<svg width="480" height="69" viewBox="0 0 480 69" fill="none" xmlns="http://www.w3.org/2000/svg">
<g clip-path="url(#clip0_1_230)">
<path d="M10.87 28.3401C9.38001 33.4901 7.78001 38.5701 6.49001 43.7301C6.01001 45.6601 5.79001 47.71 4.96001 49.48C4.09001 51.31 4.86001 53.2001 4.26001 54.9701C3.97001 55.8301 3.79001 56.91 2.66001 56.89C1.45001 56.88 0.590014 56.03 0.350014 54.91C0.0100139 53.33 -0.139986 51.7601 0.230014 50.0801C2.19001 41.2401 4.44001 32.4801 6.61001 23.7001C7.21001 21.2701 7.61001 18.7501 8.13001 16.2801C8.34001 15.2901 8.41001 14.1501 9.53001 13.8401C10.73 13.5101 11.88 13.9501 12.75 14.8501C13.87 15.9901 14.33 17.4601 14.64 19.0001C15.87 25.2301 17.11 31.45 18.35 37.67C18.49 38.38 18.51 39.1301 19.34 39.8101C20.43 35.9401 21.59 32.19 22.52 28.39C23.25 25.4 23.85 22.38 25.11 19.55C26.3 16.88 28.59 16.4601 30.67 18.5401C32.15 20.0201 32.86 21.9401 33.02 23.9401C33.48 29.7201 33.88 35.5101 34.11 41.3001C34.24 44.4501 34.02 47.61 33.88 50.76C33.81 52.2 33.76 54.02 31.9 54.14C30.26 54.25 29.39 52.87 29.16 51.28C28.48 46.36 27.85 41.4301 27.87 36.4601C27.87 35.1001 27.98 33.7601 27.26 31.7401C26.54 34.5901 26.21 36.9101 25.55 39.1301C24.65 42.1501 24.28 45.34 23.56 48.42C23.12 50.3 23.03 52.6001 20.31 52.7701C18.27 52.9001 15.63 50.5901 15.24 48.1501C14.24 41.9701 12.24 36.0001 11.7 29.7401C11.65 29.2101 11.54 28.7001 10.88 28.3501L10.87 28.3401Z" fill="black"/>
<path d="M74.1901 27.09C72.8001 27.27 70.8601 26.2099 70.1301 27.5799C69.1601 29.3999 69.4701 31.65 69.8801 33.72C70.0601 34.61 70.7901 34.5599 71.3901 34.3899C74.2101 33.6099 77.6701 34.6999 79.7201 31.5799C80.0401 31.0899 80.6301 31.04 81.2001 31.29C81.9801 31.63 82.1801 32.2699 82.2101 33.0499C82.2801 35.3099 80.1401 37.6999 77.2501 38.4799C75.7701 38.8799 74.2801 39.4799 72.7801 39.5099C69.8501 39.5699 69.3401 41.3299 69.5201 43.6199C69.6401 45.1399 69.6801 46.84 70.3801 48.11C71.3101 49.8 72.9701 48.2199 74.2801 48.2099C77.0701 48.1999 79.9301 47.93 81.9701 45.54C82.4401 44.99 83.0701 44.86 83.6901 45.2C84.3901 45.59 84.6501 46.2299 84.5001 47.0499C84.1901 48.7899 83.0901 50.13 81.7801 51C78.3601 53.29 74.6401 54.9899 70.3601 54.6899C66.8201 54.4499 64.6401 52.2 64.6401 48.68C64.6401 46.72 63.7401 44.81 64.5101 42.77C64.8801 41.79 63.7901 41.3099 63.0201 40.7799C60.9401 39.3399 60.9301 38.2899 63.1201 37.0299C64.1101 36.4599 64.2201 35.7699 64.3401 34.8499C64.8001 31.2699 65.3401 27.6999 65.8101 24.1299C65.9701 22.8999 66.0801 21.5199 67.8001 21.9599C70.9501 22.7699 73.8601 21.38 76.8801 21.1C79.4901 20.86 82.1001 20.5099 84.7201 20.6499C86.4301 20.7399 88.0201 21.3299 88.1701 23.4199C88.3201 25.4499 86.6501 25.5699 85.2701 25.9899C81.6501 27.0999 77.9301 26.9399 74.2201 27.0599L74.1901 27.09Z" fill="black"/>
<path d="M55.75 24.7901C52.52 24.9601 48.55 25.2001 44.58 25.3601C43.39 25.4101 42.93 25.8001 43.17 27.0101C43.29 27.6201 43.28 28.2701 43.27 28.9101C43.23 30.8201 43.95 31.6601 46.04 31.4401C49 31.1201 52 31.0801 54.98 30.9701C55.97 30.9301 57.23 30.8801 57.43 32.1201C57.66 33.5401 56.24 33.5301 55.36 33.7001C52.06 34.3201 48.85 35.2301 45.63 36.1701C44.07 36.6301 43.56 37.3601 43.64 38.8201C43.75 40.8101 43.83 42.8001 43.9 44.7901C43.94 45.9801 44.63 46.3001 45.69 46.2901C50.15 46.2301 54.48 45.4901 58.52 43.5601C59.29 43.1901 59.84 42.9801 60.44 43.5601C61.17 44.2601 60.88 45.0101 60.42 45.7701C59.82 46.7701 58.79 47.1701 57.87 47.7301C54.83 49.5701 51.5 50.8201 48.17 51.8701C44.46 53.0401 41.36 51.2901 39.74 47.7101C38.64 45.2801 38.08 42.7201 38.38 40.0301C38.54 38.5901 38.59 37.2501 38.13 35.7801C37.56 33.9701 39.36 32.4401 39.31 30.4301C39.27 28.7801 39.61 27.0401 39.57 25.3301C39.48 21.5501 40.09 20.5501 43.83 20.1701C48.49 19.6901 53.18 19.1701 57.89 19.3301C58.43 19.3501 58.99 19.3801 59.51 19.5001C61.2 19.8901 62.77 20.6301 62.7 22.6301C62.62 24.8101 60.62 24.5301 59.2 24.8101C58.33 24.9801 57.39 24.8401 55.74 24.8401L55.75 24.7901Z" fill="black"/>
<path d="M98.62 41.03C98.62 36.69 98.54 32.3401 98.65 28.0001C98.71 25.5801 97.56 25.0701 95.49 25.4101C94.24 25.6201 92.98 25.8001 91.72 25.8201C90.32 25.8401 89.1 25.1201 88.9 23.7401C88.66 22.1401 90.07 21.6201 91.34 21.3601C95.93 20.3901 100.55 19.51 105.25 19.4C108.13 19.33 110.95 18.21 113.86 18.98C114.56 19.16 115.3 19.21 115.97 19.47C116.99 19.86 117.58 20.6701 117.56 21.7801C117.54 22.7801 116.66 22.9601 115.93 23.3601C112.97 24.9601 109.69 24.21 106.58 24.63C104.33 24.93 103.85 25.4601 104.06 27.7701C104.61 33.7901 104.74 39.8601 105.06 45.9001C105.16 47.8001 105.37 49.6901 105.48 51.5801C105.54 52.6201 105.28 53.6 104.24 54.1C103.22 54.59 102.31 54.17 101.44 53.59C100.31 52.84 99.66 51.76 99.47 50.46C99.03 47.33 98.67 44.2001 98.28 41.0601C98.39 41.0601 98.5 41.0401 98.61 41.0401L98.62 41.03Z" fill="black"/>
<path d="M179.05 16.23C178.12 14.74 176.91 13.26 175.71 11.98C173.27 9.37004 169.39 7.73004 165.82 7.74004C162.61 7.74004 159.09 8.05004 156.04 9.05004C154.38 9.59004 152.97 10.19 151.37 10.87C149.71 11.58 148.66 12.19 147.07 13.01C145.43 13.85 143.41 15.31 142.21 16.79C141.18 18.06 140.05 19.01 139.01 20.27C137.82 21.7 136.9 22.89 135.95 24.48C134.99 26.08 134.04 28.56 133.68 30.41C133.32 32.23 133.04 33.83 132.87 35.67C132.72 37.36 132.91 39.73 133.04 41.73C133.2 44.06 133.71 44.63 134.64 46.81C135.27 48.3 136.07 49.34 137.27 50.47C138.42 51.55 139.72 52.47 141.19 52.98C142.8 53.53 144.23 54.4 145.98 54.52C147.78 54.64 149.76 54.73 151.51 54.22C152.97 53.79 154.05 52.76 155.41 52.23C155.55 52.18 155.7 52.27 155.71 52.4C155.8 53.55 155.38 54.9 155.17 56.03C154.97 57.07 154.36 58.5 154.73 59.54C154.95 60.16 155.29 60.67 155.47 61.33C155.67 62.09 155.78 63.67 156.75 63.91C158.44 64.31 160.78 59.78 161.13 58.79C161.72 57.11 161.64 56.21 162.18 54.2C162.81 51.84 162.93 49.13 163.19 46.72C163.45 44.37 163.78 42.11 163.5 39.76C163.35 38.47 163.42 37.23 163.49 35.94C163.53 35.24 163.44 34.53 163.35 33.82C163.35 33.68 163.35 33.56 163.35 33.43C163.3 32.2 163.26 30.93 162.99 29.96C162.88 29.55 162.11 29.75 162.04 29.8C161.38 30.27 161.87 30.78 161.28 31.33C161.18 31.42 160.88 31.58 160.78 31.48C160.34 31.05 160.6 30.72 160.2 30.24C159.9 29.87 159.19 30.19 158.99 30.31C158.58 30.55 158.78 32.34 158.02 32.67C157.63 32.84 157.29 32.49 157.17 33.17C157.14 33.72 157.09 34.41 157.1 35.05C156.95 35.99 156.74 36.91 156.67 37.89C156.58 39.1 155.14 39.58 154.08 39.99C152.98 40.42 151.71 40.95 150.55 41.15C149.35 41.36 148.26 40.89 147.16 40.52C146.56 40.32 145.76 40.16 145.29 39.76C144.85 39.39 144.2 39.01 143.95 38.51C142.81 36.23 141.76 33.87 142 31.25C142.47 26.07 147.08 22.37 151.46 20.1C152.61 19.51 153.79 19.01 154.95 18.43C155.99 17.91 157.19 17.32 158.3 17C160.97 16.24 162.85 16.13 165.26 16.22C167.66 16.31 169.36 16.4 171.54 18.06C172.44 18.75 173.37 19.95 173.68 21.03C173.98 22.09 174.87 23.35 175.61 23.02C175.9 22.89 175.89 21.39 176.21 21.12C176.68 20.73 177.2 22.18 177.82 22.07C177.88 21.91 177.9 21.74 178.07 21.66C178.33 21.61 178.59 21.63 178.84 21.73C178.94 21.75 179.04 21.64 179.01 21.55C178.89 21.24 179.21 19.51 179.74 20C179.98 20.22 180.33 20.58 180.68 20.35C181.46 19.83 179.44 16.86 179.07 16.26L179.05 16.23Z" fill="black"/>
<path d="M168.73 34.05C169.46 32.94 170.24 31.86 170.98 30.76C172.07 29.13 173.72 27.59 175.17 26.3C176.62 25.01 178.07 23.65 179.88 23.02C181.9 22.32 183.66 22.14 185.67 22.74C189.32 23.82 192.08 26.59 192.16 30.74C192.2 32.93 192.08 34.87 191.06 36.88C190.17 38.62 188.79 40.57 187.07 41.49C186.09 42.01 184.93 42.31 183.89 42.66C182.95 42.98 182.04 43.43 181.1 43.73C180.05 44.07 178.85 44.04 177.78 43.98C176.62 43.91 175.49 43.45 174.36 43.39C174.31 43.39 174.21 43.46 174.19 43.51C173.88 44.86 174.55 47.34 175.89 47.69C177.8 48.18 179.69 48.06 181.67 47.88C183.59 47.71 185.16 47.61 186.95 46.66C187.39 46.43 191.56 43.31 191.56 44.2C191.56 44.84 191.56 44.8 191.77 45.32C191.91 45.66 192.13 45.81 192.21 46.23C192.42 47.22 191.93 48.14 191.38 48.97C190.33 50.56 188.55 52.77 186.84 53.55C182.9 55.33 178.35 57.84 174.05 56.74C171.83 56.17 170.15 54.81 168.6 53.13C167.91 52.38 167.21 51.55 166.75 50.6C166.34 49.77 166.24 48.86 165.78 48.05C165.28 47.17 165.2 46.24 165.29 45.2C165.39 44.07 165.41 42.79 165.71 41.71C166 40.65 166.63 39.92 166.2 38.89C165.85 38.06 165.07 37.14 165 36.23C164.98 35.99 165.24 35.82 165.46 35.81C166.57 35.94 166.61 36.45 167.28 36.63C167.38 36.53 168.19 34.87 168.73 34.05V34.05ZM176.22 36.85C176.18 36.97 176.08 37.26 175.99 37.56C175.93 37.75 176.09 37.94 176.29 37.93C178.29 37.89 186.44 35.93 184.39 32.26C182.4 28.7 177.32 34.66 176.23 36.85C176.19 36.97 176.75 35.8 176.23 36.85H176.22Z" fill="black"/>
<path d="M242.07 22.89C241.26 22.71 240.41 22.85 239.58 22.71C238.55 22.55 237.57 22.36 236.54 22.17C235.8 22.03 235.06 22.24 234.52 21.6C234.35 21.4 234.23 21.5 234.17 21.18C234.09 20.76 234.48 19.76 234.53 19.31C234.76 17.22 235.43 15.38 235.88 13.34C236.36 11.22 236.47 8.89997 236.73 6.72997C236.86 5.59997 236.92 4.44997 237.19 3.34997C237.38 2.57997 237.74 1.61997 237.11 1.13997C237.04 1.08997 236.89 1.57997 236.75 1.48997C236.49 1.33997 236.8 0.809967 236.75 0.599967C236.44 -0.780033 236.06 0.539967 235.85 1.09997C235.11 3.01997 234.15 4.87997 233.38 6.78997C233.02 7.67997 232.48 8.37997 232.09 9.23997C231.62 10.28 231.32 11.45 230.9 12.52C230.18 14.38 229.63 16.33 228.84 18.17C228.46 19.05 228.51 19.89 227.6 20.11C226.62 20.35 225.45 20.11 224.44 20.11C223.4 20.11 222.42 20.28 221.4 20.48C220.81 20.6 220.23 20.58 219.65 20.57C219.1 20.91 218.59 21.29 218.11 21.68C217.25 22.49 216.26 22.9 215.53 23.84C215.42 24.04 215.38 24.27 215.39 24.49C215.57 24.51 215.74 24.54 215.91 24.56C216.7 24.67 217.47 24.92 218.25 25.03C219.32 25.17 220.46 25.12 221.5 25.48C222.24 25.74 222.83 26.04 223.63 26.18C224.04 26.25 224.76 26.22 225.11 26.47C225.56 26.78 225.49 26.55 225.32 27.23C224.86 29.13 224.2 31.01 223.53 32.84C222.77 34.94 222.4 37.24 222.01 39.45C221.59 41.86 221.18 44.32 221.11 46.77C221.1 47.13 220.58 51.24 220.53 52.56C220.51 53.04 220.31 54.21 220.44 54.63C220.66 55.32 221.08 54.86 221.6 54.63C222.25 55.42 222.23 57.49 222.38 58.48C222.58 59.77 223.14 60.99 224.33 61.45C225.5 61.9 225.46 60.56 225.76 59.64C225.95 59.03 226.33 58.31 226.73 58.15C227.4 58.03 227.83 58.84 228.4 58.56C228.95 58.29 229.01 56.39 229.13 55.88C229.49 54.28 229.68 52.68 229.79 51.06C229.77 51.06 229.93 48.87 229.98 47.77C230.1 45.12 229.91 42.49 230.16 39.84C230.38 37.47 230.79 35.1 231.22 32.76C231.46 31.43 231.84 30.12 232.21 28.82C232.53 27.68 232.53 27.18 233.7 27.18C234.75 27.18 235.75 27.36 236.8 27.25C237.21 27.21 237.88 27.3 238.24 27.06C238.47 26.9 238.66 26.53 238.9 26.33C239.75 25.63 240.88 25.41 241.64 24.55C241.81 24.36 242.59 23.01 242.04 22.89H242.07Z" fill="black"/>
<path d="M203.57 46.3C203.01 47.05 202.51 47.82 202 48.58C201.56 49.24 201.47 50.1 201.09 50.79C200.8 51.31 200.45 51.65 200.27 52.23C199.86 53.57 199.54 54.98 198.88 56.22C198.39 57.14 198.02 59.21 196.76 59.42C196.28 59.5 195.29 58.53 195.09 58.19C194.75 57.62 194.63 56.62 194.47 56C194.21 55.01 194.13 54.73 193.53 53.85C192.99 53.07 192.94 52.56 193.19 51.72C194.37 47.77 194.37 43.44 195.04 39.35C195.36 37.39 195.3 35.38 195.37 33.4C195.44 31.64 196 29.58 196.66 27.99C197.43 26.12 197.65 24.07 198.05 22.07C198.22 21.25 198.37 17.21 199.29 17.04C199.88 16.93 201.03 19.2 201.29 19.63C201.99 20.79 202.42 22.1 202.7 23.36C203.27 25.87 202.87 28.36 203.24 30.88C203.62 33.54 203.53 36.16 203.63 38.81C203.72 41.28 204.02 43.9 203.57 46.29C203.48 46.41 203.62 46.05 203.57 46.29V46.3Z" fill="black"/>
<path d="M188.54 14.3301C186.4 16.1801 183.37 17.1101 182.48 20.1501C184.01 20.2701 185.15 19.8001 186.24 19.3301C188.08 18.5401 189.93 17.8301 191.91 17.3801C193.09 17.1101 194.21 16.6401 195.36 16.2801C198.14 15.4201 201.05 15.1101 203.89 14.5201C205.44 14.2001 206.45 14.5701 208.28 14.2901C210.05 13.7401 210.57 13.3201 211.35 11.2101C211.86 8.02008 207.99 6.55007 206.1 6.49007C205.21 6.46007 202.86 6.35007 201.74 6.72007C201.65 6.72007 198.13 7.16008 196.53 7.86008C194.34 8.82008 192.6 9.76008 190.47 10.8001C189.39 11.3201 188.63 11.7601 187.62 12.3901C187.34 12.5601 186.52 13.2301 186.2 13.8401C187 13.6601 188.11 13.3001 188.64 13.4101C189.05 13.6901 189 13.9201 188.55 14.3201L188.54 14.3301Z" fill="#C72127"/>
<path d="M216.34 19.33C217.84 18.4301 219.17 18.0701 220.79 17.6201C222.06 17.2701 223.23 17.53 223.64 16.05C224.33 15.59 225.07 15.3301 225.88 15.1801C226.4 15.0901 227.19 15.2601 227.4 14.5201C227.43 14.4301 227.4 14.3501 227.29 14.2901C226.98 14.1201 226.17 13.9301 226.42 13.7501C227.813 13.1767 228.463 12.7801 228.37 12.5601C228.12 11.9601 226.99 12.1901 226.4 12.0801C225.42 11.9101 224.45 11.8501 223.46 11.8301C221.63 11.7901 219.81 11.8301 218 12.2001C217.2 12.3601 216.38 12.5101 215.6 12.7601C214.86 13.0001 214.02 13.0501 213.32 13.3401C212.61 13.6301 212 14.28 211.35 14.69C210.56 15.19 209.88 15.63 209.32 16.4C205.71 21.34 204.07 27.83 206.26 33.73C207.42 36.87 209.18 39.9601 210.03 43.2001C210.77 46.0201 210.06 49.3901 208.57 51.8301C207.68 53.2801 206.5 54.5 205.58 55.94C204.21 57.28 203.25 58.16 201.33 59.01C199.72 59.72 198.04 60.9501 196.29 61.0401C192.98 61.2001 190.38 61.91 187.1 61.44C180.56 60.49 176.05 59.2501 170.1 57.1301L164.51 55.53C163.33 56.43 165.24 57.2301 164.75 57.6101C164.24 58.0001 163.04 57.95 164.39 58.93C167.04 60.84 173.76 63.2701 176.8 64.4801C182.05 66.5601 186.99 68.2301 192.29 68.6601C197.67 69.1001 203.34 68.25 207.75 65C208.57 64.39 209.13 64.2301 210.93 62.7001C212.16 61.6601 213.57 60.4101 214.56 59.1301C215.38 58.0701 215.88 56.7401 216.49 55.5601C217.25 54.0601 217.97 52.89 218.36 51.21C218.77 49.47 218.87 47.99 218.87 46.21C218.87 42.82 218.22 39.2501 217.12 36.0601C216.82 35.2101 216.26 33.8501 215.39 32.1301C214.52 30.4301 213.96 29.0001 213.51 27.6801C212.93 25.9601 212.76 24.1401 213.33 22.5701C213.88 21.0801 215.04 20.1301 216.35 19.3501L216.34 19.33Z" fill="black"/>
<path d="M281.1 25.2598C281.08 25.0598 280.86 24.9298 280.67 25.0098C280.38 25.1198 280.11 25.2298 279.83 25.2898C279.55 25.3498 279.2 25.5498 278.98 25.1798C278.79 24.8598 278.97 24.5498 279.14 24.2998C279.4 23.9198 279.7 23.5498 280.02 23.1498C280.15 22.9898 279.97 22.7498 279.78 22.8498C279.51 22.9898 279.34 23.2598 279.08 23.3498C278.72 23.4798 278.41 23.9198 278.03 23.5798C277.66 23.2398 277.73 22.7898 278.07 22.3998C278.17 22.2898 278.36 22.1698 278.22 21.9598C277.87 21.9298 277.67 22.2398 277.42 22.4198C277.2 22.5798 276.9 22.4198 276.87 22.1598C276.76 21.0798 277.26 20.3198 278.19 19.6098C279.88 18.3298 281.61 17.1398 283.65 16.5398C285.8 15.9098 288.05 15.8898 290.17 16.4298C294.11 17.4198 297.15 19.7198 298.48 23.6798C299.26 25.9898 299.72 28.4098 298.59 30.8498C297.03 34.2198 294.65 36.7498 291.27 38.4298C291.95 39.0198 292.71 39.4098 293.45 39.7898C294.73 40.4498 295.89 41.2798 297.03 42.1398C299.52 44.0398 301.88 46.1198 304.5 47.8398C307.94 50.0998 311.7 50.5498 315.68 49.5598C318.51 48.8598 320.9 47.4698 322.75 45.2198C323.21 44.6598 323.78 44.3898 324.47 44.3198C324.91 44.2798 325.14 44.6498 324.87 45.0198C324.58 45.4298 324.24 45.8098 323.84 46.2698C323.74 46.3898 323.87 46.5698 324.01 46.4898C324.77 46.0798 325.07 45.2098 325.83 45.0298C326.02 45.3098 325.48 45.5598 325.83 45.7398C326.01 45.8298 326.36 45.4998 326.48 45.8998C326.57 46.2198 326.41 46.4998 326.23 46.7698C326.09 46.9698 325.72 46.9898 325.78 47.3798C326.18 47.4698 326.45 47.1798 326.72 46.9998C327.24 46.6398 327.42 47.2298 327.72 47.3598C328.01 47.4898 327.74 47.8198 327.6 48.0398C327.04 48.9198 326.26 49.5998 325.49 50.2798C323.58 51.9798 321.58 53.5198 319.06 54.2798C316.43 55.0698 313.77 55.6398 311.03 55.4998C307.78 55.3398 304.72 54.4798 301.92 52.6998C299.15 50.9298 296.74 48.7198 294.11 46.7898C291.98 45.2298 289.76 43.8098 287.27 42.8798C286.94 42.7498 286.59 42.6698 286.24 42.5998C285.95 42.5498 285.71 42.6398 285.71 43.0098C285.71 43.0998 285.71 43.1898 285.71 43.2798C285.73 45.7898 285.32 48.2698 285.34 50.7798C285.35 52.0598 285.18 53.3398 285.06 54.6198C285.03 54.9298 284.92 55.2498 284.48 55.2098C283.87 55.1398 283.29 54.9698 282.67 54.9798C282.41 54.9798 282.43 54.6698 282.39 54.4498C282.33 54.0498 282.51 53.6098 282.31 53.1998C282.24 53.0598 282.03 53.0998 282 53.2498C281.91 53.8298 281.82 54.3998 281.72 55.0198C281.69 55.2298 281.49 55.3698 281.29 55.3298C280.92 55.2498 280.53 55.3798 280.33 55.0998C280.05 54.7198 280.17 54.1798 280.23 53.6798C280.32 52.9398 280.26 52.1798 280.3 51.4198C280.3 51.2898 280.12 51.2498 280.07 51.3798C280 51.5998 279.95 51.7698 279.92 52.0998C279.8 53.0798 279.81 53.7698 279.69 54.6098C279.64 54.9798 279.4 55.2998 279.05 55.4298C278.5 55.6298 278.4 55.1098 278.16 54.7898C277.51 53.8998 277.51 52.9598 277.68 51.9298C278.04 49.6798 278.32 47.4198 278.65 45.1598C279.34 40.3798 280.04 35.6098 280.5 30.7998C280.66 29.1598 280.91 27.5298 281.08 25.8898C281.1 25.6798 281.13 25.4698 281.1 25.2398V25.2598ZM288.32 21.8398C287.16 21.7398 287.11 21.7398 287.08 22.8498C287.01 25.6598 286.64 28.4398 286.34 31.2198C286.27 31.8198 286.29 32.4198 286.38 33.0098C286.5 33.7798 286.52 33.8198 287.25 33.6398C290.16 32.9098 292.11 31.0898 293.13 28.2898C293.72 26.6798 293.37 25.1598 292.29 23.8998C291.25 22.6798 289.95 21.8198 288.33 21.8298L288.32 21.8398Z" fill="black"/>
<path d="M250.92 49.4799C251.06 49.5199 251.17 49.3499 251.07 49.2399C250.66 48.7899 250.17 48.5499 249.77 48.1999C249.34 47.8299 249.35 47.8199 249.96 47.4599C250 47.4399 250.04 47.4299 250.08 47.3999C251.24 46.4799 251.24 46.4899 252.4 47.3299C252.75 47.5899 253.06 47.9499 253.65 47.9599C254.96 40.4899 255.85 32.9599 257.09 25.4399C256.55 25.1899 255.95 25.8799 255.45 25.4799C255.36 25.4099 254.84 24.8499 254.67 24.5999C254.5 24.3499 254.54 24.0399 254.76 23.8699C255.04 23.6599 255.33 23.4899 255.59 23.2599C255.77 23.0999 255.58 22.8099 255.36 22.9199C255.08 23.0499 254.85 23.2399 254.6 23.3899C254.38 23.5299 254.15 23.6899 253.9 23.7599C253.66 23.8299 253.48 23.6399 253.36 23.4499C253.23 23.2499 253.39 23.1299 253.52 23.0099C253.72 22.8199 253.91 22.6399 254.13 22.4299C254.31 22.2599 254.07 21.9799 253.88 22.1299C253.71 22.2599 253.58 22.4399 253.39 22.4899C253.14 22.5599 252.87 22.7799 252.65 22.5699C252.43 22.3499 252.4 22.0699 252.6 21.7299C253.24 20.6299 254.09 19.6999 255.16 19.0799C258.28 17.2799 261.61 16.2099 265.27 16.5299C268.12 16.7699 270.6 17.8299 272.32 20.1699C274.61 23.2699 274.93 26.6499 273.3 30.1699C272.65 31.5599 271.54 32.9399 270.45 33.9299C270.73 34.0399 270.82 34.1399 270.98 34.2299C275.2 36.6899 276.91 41.8599 275.05 46.4899C274.11 48.8299 272.49 50.7399 270.46 52.3299C266.1 55.7399 261.23 56.4799 256.02 55.1899C253.41 54.5399 250.99 53.3499 248.87 51.6299C248.34 51.1999 248.07 50.7699 248.42 50.1999C248.52 50.0299 248.76 49.9899 248.91 50.1099C249.11 50.2599 249.32 50.4699 249.69 50.3099C249.51 49.7099 248.73 49.5899 248.5 48.9899C248.43 48.7999 248.55 48.5899 248.75 48.5499C249.1 48.4799 249.46 48.5499 249.84 48.7599C250.2 48.9499 250.46 49.3399 250.94 49.4799H250.92ZM260.7 50.1599C261.01 50.1599 261.33 50.1899 261.64 50.1599C265.42 49.7799 268.19 47.9299 269.78 44.4499C270.54 42.7999 270.34 41.1199 269.12 39.8199C268.04 38.6699 266.55 38.3599 264.93 38.7499C263.64 39.0599 262.54 39.7199 261.37 40.2599C260.62 40.6099 260.3 41.1399 260.19 41.8999C259.87 44.1099 259.53 46.3199 259.23 48.5399C259 50.2299 259.02 50.2299 260.7 50.1599V50.1599ZM268.69 26.1599C268.55 22.9999 266.57 22.0199 263.92 21.9899C263.27 21.9899 263.14 22.4699 263.06 22.9799C262.65 25.6699 262.25 28.3699 261.84 31.0599C261.77 31.5299 261.91 31.7099 262.41 31.6599C263.97 31.4999 265.34 30.8899 266.54 29.9099C267.76 28.9099 268.56 27.6599 268.69 26.1699V26.1599Z" fill="black"/>
<path d="M335.89 53.1999C335.76 53.8699 335.96 54.5699 335.73 55.2099C335.64 55.4499 335.31 55.4499 335.21 55.2199C334.94 54.6099 334.67 54.0499 334.54 53.4599C333.98 50.9099 332.91 48.5399 332.06 46.0999C330.92 42.8099 329.64 39.5699 328.6 36.2399C327.38 32.3599 325.93 28.5599 324.59 24.7299C324.25 23.7699 324.03 22.7799 323.55 21.8499C323.24 21.2599 323.56 20.6599 323.75 19.9799C323.82 19.7199 324.16 19.6699 324.31 19.8899C324.62 20.3699 324.82 20.8699 325.04 21.3399C325.12 21.4999 325.36 21.4199 325.32 21.2399C325.17 20.6099 324.77 20.0599 324.61 19.4499C324.54 19.1799 324.71 18.8899 324.98 18.8199C325.68 18.6199 325.8 18.7599 326.12 19.4999C326.18 19.6499 326.22 19.8099 326.28 19.9699C326.38 20.2399 326.8 20.0899 326.7 19.8199C326.6 19.5499 326.45 19.2999 326.35 19.0399C326.24 18.7299 326.01 18.3199 326.56 18.2099C326.87 18.1399 327.33 17.6699 327.52 18.4199C327.55 18.5199 327.6 18.6199 327.68 18.7199C327.81 18.9099 328.1 18.7599 328.03 18.5399C327.99 18.4199 327.95 18.3099 327.92 18.1999C327.83 17.8699 328.21 17.6099 328.49 17.8099C328.94 18.1199 329.2 18.6199 329.44 19.1199C330.27 20.7999 330.86 22.5899 331.4 24.3799C332.08 26.5999 332.77 28.8199 333.51 31.0199C334.17 32.9999 334.58 35.0499 335.37 36.9899C335.82 38.0899 336.15 39.0399 336.53 40.2999C336.6 40.5299 336.89 40.5899 337.05 40.4099C337.16 40.2799 337.2 40.1399 337.23 39.9799C337.71 37.1999 338.45 34.4799 338.78 31.6799C338.88 30.7899 338.93 29.8999 339.06 29.0099C339.11 28.6799 339.11 28.0699 339.77 28.4999C340.18 28.0399 340.61 27.9199 341.08 28.4199C341.45 27.5799 342.16 28.1599 342.69 28.0799C343.54 27.9599 344.48 28.6199 344.66 29.4599C344.95 30.7899 345.61 31.9599 346.14 33.1899C347.3 35.9199 348.43 38.6699 349.57 41.4099C349.69 41.6899 350.1 41.6299 350.13 41.3299C350.13 41.2899 350.13 41.2399 350.14 41.1999C350.39 38.7499 350.95 36.3499 351.2 33.9099C351.4 31.9599 351.67 30.0099 351.85 28.0499C351.92 27.2499 351.98 26.4199 352.72 25.8899C352.94 25.7399 353.25 25.5899 353.36 25.9799C353.64 27.0399 353.95 26.4199 354.27 26.0199C354.41 25.8499 354.65 25.8099 354.83 25.9299C355.44 26.3199 355.65 26.8799 355.51 27.5999C355.48 27.7799 355.71 27.8799 355.82 27.7399C355.99 27.5099 356.05 27.2699 356.12 26.6799C356.15 26.4399 356.38 26.2799 356.61 26.3299C356.84 26.3799 357.06 26.4299 357.27 26.4999C357.48 26.5699 357.67 26.6999 357.67 26.9799C357.67 27.7799 357.78 28.5999 357.63 29.3699C357.03 32.5799 356.47 35.7899 356.02 39.0199C355.45 43.0899 354.79 47.1499 354.2 51.2099C354.09 51.9699 354.03 52.7399 353.95 53.5099C353.89 54.1399 353.57 54.5899 353.26 55.1199C352.85 55.8299 352.42 55.0899 352.07 55.3899C351.93 55.5099 351.83 55.2099 351.83 55.0299C351.83 54.6899 352.1 54.3499 351.81 53.9899C351.47 53.9699 351.56 54.2699 351.51 54.4399C351.43 54.6999 351.31 54.8399 351.05 54.6399C350.91 54.5399 350.77 54.4299 350.66 54.2999C350.24 53.8199 350.4 55.4299 349.81 54.5199C349.62 54.2199 349.38 54.3499 349.12 54.4699C348.89 54.5799 348.61 54.4899 348.49 54.2599C346.91 51.2199 345.93 47.9099 344.82 44.6499C344.3 43.1399 343.74 41.6599 342.77 40.2699C342.37 42.2599 341.93 44.2399 341.57 46.2399C341.46 46.8499 341.36 47.4699 341.24 48.0799C340.97 49.3899 340.58 50.6699 340.44 52.0199C340.34 52.9399 340.09 53.8399 339.53 54.6399C339.3 54.9699 338.78 54.8399 338.74 54.4299C338.69 53.9799 338.78 53.4899 338.67 53.0199C338.63 52.8399 338.36 52.8499 338.34 53.0399C338.28 53.5999 338.28 54.1299 338.25 54.6599C338.24 54.8899 337.93 54.9499 337.83 54.7399C337.72 54.4999 337.62 54.2599 337.45 54.0699C337.28 53.8799 336.98 53.9099 336.85 54.1399C336.7 54.3999 336.71 54.7399 336.66 55.0899C336.63 55.2999 336.34 55.3099 336.3 55.0999C336.18 54.4399 336.3 53.8099 336.2 53.1799C336.17 53.0099 335.93 53.0099 335.89 53.1799V53.1999Z" fill="black"/>
<path d="M417.22 21.72C417.44 22.1 417.43 22.32 416.91 22.26C416.61 22.22 416.35 22.01 416.03 22.02C415.96 22.02 415.91 22.1 415.94 22.16C415.96 22.2 415.97 22.24 416 22.28C416.49 22.93 416.5 23.48 416.03 24.11C415.45 24.89 415.36 24.92 414.3 24.5C414.28 24.5 414.26 24.5 414.27 24.52C414.5 26.41 414.35 28.25 414.16 30.08C413.78 33.62 413.42 37.16 412.52 40.63C411.84 43.24 411.09 45.81 409.51 47.98C408 50.06 406.6 51.72 403.78 52.98C402.46 53.5533 401.33 53.9966 400.39 54.31C399.03 54.83 397.59 55.09 396.39 55.27C395.15 55.46 393.89 55.43 392.64 55.63C390.53 55.97 388.34 55.9 386.18 55.75C384.85 55.66 383.52 55.64 382.19 55.67C381.3 55.69 380.39 55.53 379.48 55.5C378.73 55.48 378.25 54.83 378.3 54.07C378.32 53.74 378.53 53.61 378.81 53.58C379.43 53.51 380.05 53.47 380.68 53.43C381.17 53.4 381.66 53.37 382.15 53.32C382.3 53.31 382.31 53.08 382.15 53.07C381.29 52.97 380.39 53.09 379.42 53.02C379.18 53 379.11 52.68 379.32 52.56C380.61 51.79 382.03 52.13 383.38 51.93C383.67 51.89 383.64 51.46 383.34 51.46C382.18 51.46 381.02 51.48 379.86 51.48C379.64 51.48 379.41 51.47 379.19 51.43C378.64 51.34 378.49 50.88 378.51 50.45C378.52 50.04 378.87 49.86 379.28 49.89C381.41 50.04 383.54 49.84 385.68 50.01C387.36 50.14 389.09 50.01 390.77 49.81C393.08 49.55 395.35 49.11 397.57 48.37C400.77 47.31 403.03 45.23 404.57 42.3C404.9 41.67 405.19 41.01 405.49 40.36C405.73 39.84 405.6 39.59 405 39.42C403.28 38.95 401.56 38.46 400.02 37.5C396.87 35.54 394.99 32.77 394.55 29.04C394.37 27.52 394.38 26.01 394.74 24.51C395.55 21.06 397.8 18.8 400.87 17.31C406.12 14.77 411.26 15.26 416.26 18.11C417.05 18.56 417.6 19.26 418.21 19.91C418.8 20.54 418.72 20.75 418.4 21.1C418.4 21.1 418.2 21.27 418.06 21.3C417.35 21.42 417.31 21.13 417.09 20.85C416.52 20.16 415.97 19.75 415.21 19.49C414.99 19.42 414.83 19.7 415.02 19.85C415.45 20.18 415.89 20.49 416.31 20.82C416.58 21.03 417.18 21.6 417.24 21.7L417.22 21.72ZM408.35 22.63C408.44 21.35 408.42 21.36 407.19 21.39C405.87 21.42 404.62 21.76 403.44 22.29C402.06 22.91 400.99 23.88 400.36 25.31C399.39 27.51 400.2 30.58 402.22 32.2C403.4 33.16 404.78 33.61 406.35 33.38C407.06 33.28 407.4 33.03 407.49 32.22C407.85 29.03 408.27 25.84 408.35 22.63Z" fill="black"/>
<path d="M369.48 51.9799C369.77 49.2699 369.95 46.8699 370.26 44.3099C370.59 41.5199 370.84 38.7799 371 35.9999C371.07 34.9199 371.31 33.8999 371.44 32.8499C371.73 30.4199 371.81 28.0099 371.98 25.5699C372 25.3499 372 25.1199 372.07 24.9099C372.21 24.4899 372.14 23.9799 372.63 23.7599C372.8 23.6799 373.2 24.1699 373.49 24.2199C373.62 24.2399 374.11 24.0099 374.18 23.8999C374.42 23.4999 374.75 23.2899 375.16 23.4199C375.57 23.5499 375.25 23.9499 375.37 24.2299C375.94 24.2099 375.8 23.2699 375.92 22.7999C375.97 22.6099 376.3 22.3599 376.57 22.5099C377.92 23.2599 378.62 24.4199 379.21 25.7699C380.15 27.9199 381.27 29.8599 382.35 31.9199C383.04 33.2299 383.73 34.5499 384.34 35.8999C384.36 35.9399 384.37 35.9799 384.4 36.0199C384.61 36.3099 384.98 36.2599 385.08 35.9199C385.11 35.7999 385.1 35.6799 385.11 35.5699C385.35 32.2999 385.84 29.0799 386.05 25.7899C386.19 23.5399 386.43 21.2399 386.64 18.9799C386.71 18.1799 386.75 17.3799 386.81 16.5899C386.83 16.2999 386.97 16.0499 387.21 15.9499C387.62 15.7699 387.52 16.1899 387.67 16.3599C387.88 16.5999 388.01 16.4999 388.21 16.3399C388.41 16.1799 388.49 15.9399 388.63 15.7299C388.82 15.4499 389.15 15.4899 389.29 15.7899C389.29 15.8099 389.31 15.8299 389.31 15.8499C389.34 15.9599 389.48 16.0799 389.56 16.1099C390.33 16.3799 390.56 16.4299 390.57 17.2699C390.57 17.7799 390.57 18.3699 390.57 18.8999C390.57 18.9899 390.72 19.0299 390.75 18.9299C391.05 18.0699 391.01 17.1699 391.15 16.2999C391.19 16.0399 391.42 15.8599 391.68 15.9399C392.13 16.0799 392.39 16.4199 392.86 16.6099C393.15 16.7299 393.08 17.0999 393.03 17.4399C392.74 19.2099 392.71 20.3999 392.59 22.5199C392.57 22.8799 392.33 25.5199 392.28 26.2799C392.2 27.5399 392.1 28.6099 391.9 29.8299C391.44 32.6199 391.27 34.7499 390.72 37.7599C390.27 40.2599 389.84 43.7299 389.26 46.3799C388.88 47.0499 388.36 47.1799 387.68 46.9199C387.38 46.7999 387.25 46.7599 386.92 46.9199C386.31 47.1999 385.98 47.4899 385.2 47.2799C384.76 47.1699 384.54 46.9299 384.05 46.4199C383.44 45.7799 381.94 43.5399 381.59 42.8199C380.02 39.6299 378.84 36.8799 377.17 33.9199C376.83 34.2299 376.84 34.6699 376.81 35.0599C376.48 38.6199 376.14 42.1499 375.79 45.6899C375.55 48.1099 375.31 50.4999 375.09 52.9099C375.02 53.6399 374.81 54.2999 374.47 54.9499C374.36 55.1499 374.06 55.1399 373.97 54.9299C373.66 54.1999 373.93 53.4399 373.8 52.6899C373.75 52.3899 373.36 52.4399 373.32 52.7099C373.31 52.7799 373.32 52.8699 373.3 52.9399C373.24 53.2299 373.26 53.5899 373.25 53.8699C373.22 54.4099 372.9 54.9899 372.36 54.9799C371.72 54.9699 371.82 54.2699 371.86 53.8599C371.95 52.8099 371.99 51.8199 372.02 50.7699C372.02 50.6499 372.04 50.5299 372.02 50.3999C372 50.2699 371.8 50.2299 371.77 50.3799C371.48 51.8899 371.64 53.3999 370.98 54.8299C370.87 55.0699 370.62 55.0199 370.35 54.9099C369.48 54.5399 369.47 52.5799 369.53 51.9599L369.48 51.9799Z" fill="black"/>
<path d="M324.91 36.1799C325.11 35.8299 325.35 35.8299 325.69 35.9099C326.08 35.9999 326 36.2899 326 36.5399C326 36.8499 325.95 37.1599 325.78 37.4399C323.44 41.3199 320.18 44.0399 315.71 45.0699C311.64 46.0099 308 45.0699 304.97 42.1199C300.83 38.0899 299.64 33.2199 301.28 27.7599C302.7 23.0099 306.83 19.9399 311.15 19.7299C313.45 19.6199 315.44 20.4299 317.18 21.8999C317.89 22.5099 318.61 23.1199 319.05 23.9799C320 25.8499 320.29 27.7799 319.59 29.7999C319.53 29.9699 319.44 30.1299 319.4 30.2999C318.46 33.8399 315.79 35.5299 312.6 36.6399C311.94 36.8699 311.28 37.1399 310.61 37.3499C309.88 37.5699 309.15 37.7199 308.39 37.7699C308.83 38.6799 310.13 39.6199 311.39 39.9199C313.06 40.3199 314.68 40.0799 316.22 39.3599C318.17 38.4499 319.71 37.0499 320.95 35.2999C321.12 35.0599 321.24 34.7699 321.47 34.5799C321.66 34.4299 321.94 34.6099 321.87 34.8499C321.73 35.3599 321.26 36.0899 321.08 36.6799C321.04 36.8199 321.21 36.9199 321.3 36.8099C321.57 36.5099 321.65 36.2599 321.84 35.9299C321.85 35.9099 321.86 35.8899 321.88 35.8799C322.19 35.4999 322.43 35.1199 322.73 34.7299C322.86 34.5499 323.12 34.5299 323.28 34.6799C323.4 34.7899 323.53 34.8999 323.66 34.9999C324.5 35.6099 324.53 35.6199 324.19 36.5199C324.12 36.6999 323.84 37.1899 323.63 37.6199C323.59 37.7099 323.71 37.7899 323.77 37.7099C324.17 37.1899 324.77 36.4599 324.93 36.1799H324.91ZM307.91 31.8299C308.87 31.9899 309.88 31.5899 310.92 31.3499C312.37 31.0099 313.36 30.0899 314.16 28.9299C314.96 27.7699 314.75 26.5899 313.62 25.7799C312.45 24.9499 311.16 24.7599 309.83 25.3699C307.88 26.2699 306.72 27.8399 306.16 29.8699C305.64 31.7599 305.77 31.8999 307.91 31.8199V31.8299Z" fill="black"/>
<path d="M361.64 54.0398C361.22 54.3598 361.2 55.1798 360.47 54.9798C359.76 54.7798 360.37 54.0998 360.07 53.7398C359.63 53.7898 360.02 54.3798 359.64 54.4098C359.3 54.4298 358.96 54.4098 358.68 54.0898C358.32 53.6898 358.14 53.2598 358.2 52.7498C358.47 50.6798 358.51 48.5798 359.14 46.5398C359.38 45.7598 359.43 44.8398 359.5 43.9998C359.74 40.9698 360.27 37.9998 360.79 35.0198C361.07 33.4398 361.17 31.8298 361.37 30.2298C361.44 29.6998 361.55 29.1698 361.63 28.6398C361.71 28.1198 361.7 27.5198 362.53 27.8098C362.6 27.8298 362.7 27.7698 362.78 27.7298C363.06 27.5498 363.29 27.1398 363.68 27.5198C364.02 27.8498 364.2 28.2198 363.89 28.6898C363.89 28.6998 363.87 28.7198 363.86 28.7398C363.77 28.9298 364.07 29.0698 364.17 28.8798C364.26 28.6998 364.35 28.5298 364.45 28.3598C364.57 28.1598 365.12 27.9698 365.31 27.8698C366.17 27.4498 366.92 27.8198 367.65 28.1898C367.94 28.3398 367.91 28.7398 367.89 29.0598C367.84 29.7698 367.8 30.4898 367.72 31.1998C367.25 35.1098 366.81 39.0198 366.29 42.9198C365.94 45.5298 365.47 48.1298 365.07 50.7298C364.93 51.6598 364.86 52.5998 364.72 53.5198C364.64 54.0498 364.5 54.5698 364.35 55.0798C364.28 55.3298 364.14 55.6198 363.82 55.6098C363.34 55.5898 363 55.0798 362.48 55.1598C361.58 55.2998 361.88 54.4998 361.65 54.0598L361.64 54.0398Z" fill="black"/>
<path d="M371.21 16.2499C371.69 16.0699 372.13 16.6299 372 16.9799C371.64 17.9699 372.06 17.6799 372.5 17.8199C372.98 18.0799 372.47 18.7899 372.38 18.9699C371.72 20.2599 370.85 21.1799 369.87 21.8699C368.66 22.7199 367.36 23.1599 366.05 23.5299C362.85 24.4399 359.81 23.5099 356.83 21.7899C355.58 21.0699 354.37 20.2699 353.3 19.0399C352.76 18.4199 352.15 17.4599 352.12 16.5499C352.12 15.8699 352.34 15.6399 352.72 15.6699C353.14 15.6499 353.57 16.4399 353.8 16.0999C354.05 15.5799 352.98 15.2899 353.3 14.6899C353.71 14.2299 353.92 14.5699 354.35 14.9099C354.49 15.0199 354.72 14.9699 354.72 14.7599C354.72 14.4099 354.35 14.0799 354.24 13.7899C354.13 13.4999 354.05 13.3399 354.21 13.0599C354.38 12.7599 354.75 12.8999 354.93 12.9999C355.06 13.0699 355.17 13.1699 355.27 13.2999C357.09 15.7099 359.34 16.6099 361.64 17.4199C363.47 18.0699 365.24 17.5399 366.99 16.9399C367.94 16.3999 368.61 16.1699 369.18 15.3699C369.51 14.9099 369.65 14.7399 370.06 14.5699C370.85 14.4899 370.81 15.1699 370.65 15.3899C370.41 15.7599 370.36 15.9099 370.55 16.2299C370.68 16.4399 370.97 16.3299 371.2 16.2399L371.21 16.2499Z" fill="black"/>
<path d="M443.67 55.62C444.05 55.7 444.39 55.85 444.74 56.04C445.13 56.25 445.09 56.83 444.68 56.97C443.97 57.22 443.23 57.13 442.52 57.01C436.71 56.03 431.96 53.04 428.1 48.79C425.15 45.54 423.5 41.56 423.33 37.09C423.33 37 423.35 36.9 423.33 36.81C422.67 33.36 423.73 30.16 424.89 27.01C425.6 25.1 426.63 23.34 428.1 21.88C428.83 21.15 428.79 21.09 429.59 20.46C429.78 20.24 429.79 20.28 430.34 19.88C431.08 19.25 431.1 19.34 431.52 19.02C433.16 17.77 434.98 16.78 436.93 16.23C439.87 15.4 442.77 14.57 446.05 14.59C447 14.58 447.39 14.59 448.52 14.72C450.13 14.92 450.36 15.5 450.49 15.74C450.88 16.46 449.64 16.89 448.81 16.92C448.01 16.96 446.47 16.82 445.32 17.18C445.2 17.22 445.24 17.41 445.36 17.41C446.13 17.41 446.9 17.38 447.66 17.42C448.08 17.44 448.91 17.33 449.29 17.58C449.94 18.26 449.68 18.92 448.8 18.96C448.32 18.87 447.62 19.04 447.01 19.12C446.88 19.14 446.87 19.31 446.99 19.35C447.66 19.55 448.52 19.26 449.06 19.55C449.3 19.68 449.22 20.41 448.95 20.44C447.92 20.54 448.29 20.52 446.89 20.41C445.87 20.22 444.48 20.58 443.44 20.7C440.56 21.04 437.95 22.06 435.47 23.5C434.32 24.17 433.17 24.94 432.28 25.83C431.34 26.77 430.67 28.12 430.23 29.47C430.06 30.01 429.89 30.55 429.74 31.09C428.35 36.07 429.16 40.73 432.44 44.68C434.84 47.57 437.97 49.68 441.72 50.7C442.66 50.96 443.59 51.28 444.49 51.68C444.98 51.9 444.79 52.16 444.81 52.41C444.85 52.82 444.54 52.86 444.25 52.84C443.45 52.77 442.65 52.67 441.88 52.41C441.78 52.37 441.67 52.34 441.57 52.32C441.3 52.26 441.18 52.64 441.44 52.75C442.11 53.02 442.85 52.96 443.51 53.17C444.1 53.35 444.73 53.3 445.19 53.96C445.36 54.2 445.16 54.67 445.38 54.87C445.56 55.04 445.53 55.32 445.31 55.42C445.31 55.42 445.29 55.42 445.28 55.43C444.76 55.65 444.22 55.4 443.67 55.48C443.58 55.49 443.57 55.62 443.67 55.64V55.62Z" fill="black"/>
<path d="M478.58 50.6001C479.38 52.0301 477.16 52.0501 479.37 52.9401C478.6 54.2601 476.35 56.2901 474.71 55.8101C474.7 55.6701 474.72 55.5301 474.76 55.4001C474.84 55.1401 474.56 54.9001 474.32 55.0301C473.01 55.7201 472.24 56.2401 472.78 53.9001C471.8 53.9701 471.2 54.5401 471.32 53.0101C471.11 51.9101 470.01 53.5201 470.51 51.8601C470.51 49.9301 473.27 49.5301 474.51 48.4401C474.9 48.3101 476.34 48.2901 475.99 49.0101C475.89 49.1501 475.66 49.2501 475.79 49.5801C477.08 49.1301 478.11 48.6401 477.44 50.4801C477.81 50.9401 478.11 51.0301 478.59 50.6201L478.58 50.6001Z" fill="black"/>
<path d="M467.81 46.3699C468.31 44.4499 468.58 42.6599 468.14 40.7599C467.87 39.5599 467.64 38.5399 467.19 37.4099C466.96 36.8199 466.69 36.2999 466.38 35.8099C466.38 35.7999 466.37 35.7799 466.36 35.7599C466.35 35.7399 466.33 35.7199 466.31 35.6999C465.91 35.0799 465.43 34.5499 464.85 34.0999C462.56 31.9999 458.73 29.7899 455.66 29.9799C455.66 29.9799 455.66 29.9799 455.65 29.9899C454.39 29.9899 453.25 30.2299 452.13 30.5299C450.37 31.0099 448.64 31.6899 447.19 32.8099C445.7 33.9599 444.56 35.6199 443.89 37.3699C443.46 38.4799 443.22 39.6599 443.18 40.8399C443.09 43.9099 444.41 46.6699 446.48 48.8799C448.64 51.1799 451.18 52.49 454.3 53.08C455.64 53.33 457.1 53.26 458.43 53.24C461.01 53.22 463.21 52.1499 465.07 50.6399C466.14 49.7699 466.61 49.1699 467.15 48.1599C467.42 47.6599 467.49 47.3599 467.63 47.0399C467.77 46.7199 467.76 46.5599 467.81 46.3699V46.3699ZM462.38 45.08C462.1 45.76 461.73 46.4199 461.3 47.0199C460.89 47.5899 460.14 47.9099 459.48 48.0599C458.79 48.2199 458.08 48.2299 457.37 48.2099C455.4 48.1599 453.43 47.8399 451.71 46.8199C450.56 46.1399 449.57 45.18 448.95 43.99C448.58 43.29 448.35 42.4999 448.38 41.7099C448.41 40.8999 448.72 40.1199 449.14 39.4299C449.8 38.3399 450.68 37.2499 451.85 36.6799C452.85 36.1999 453.87 35.7399 454.96 35.4399C455.02 35.4199 455.09 35.4099 455.15 35.3899C455.4 35.3299 455.65 35.2699 455.9 35.2199C455.96 35.2199 456.02 35.1999 456.07 35.1899C456.18 35.1699 456.29 35.16 456.39 35.15C459.74 34.9 461.09 37.8899 462.14 39.7199C462.87 41.4199 463.1 43.2499 462.37 45.0699L462.38 45.08Z" fill="black"/>
</g>
<defs>
<clipPath id="clip0_1_230">
<rect width="479.36" height="68.75" fill="white"/>
</clipPath>
</defs>
</svg>
