<svg width="109" height="88" viewBox="0 0 109 88" fill="none" xmlns="http://www.w3.org/2000/svg">
<path d="M46.0496 16.1683C45.0753 14.6553 43.9619 13.2367 42.724 11.9309C40.2925 9.32943 36.4298 7.6965 32.8799 7.70241C29.687 7.70241 26.1785 7.9977 23.142 9.00757C21.4895 9.54795 20.0907 10.1444 18.4973 10.8236C16.8418 11.5293 15.8003 12.1376 14.2127 12.9555C12.6251 13.7735 10.5654 15.247 9.37028 16.7204C8.34338 17.9902 7.22203 18.9351 6.18037 20.1842C5.04927 21.4954 4.02961 22.899 3.13209 24.3802C2.08455 26.223 1.32238 28.2143 0.87167 30.2859C0.504267 32.0197 0.232445 33.7724 0.0572973 35.5361C-0.0961483 37.2163 0.092656 39.5785 0.225445 41.5717C0.381842 43.8897 0.89541 44.4567 1.81903 46.6359C2.40967 48.0327 3.30494 49.2797 4.43938 50.2856C5.54664 51.3888 6.87808 52.2408 8.34338 52.7837C9.94571 53.3271 11.3738 54.2011 13.1119 54.3192C14.9031 54.4403 16.8773 54.5318 18.6213 54.0239C20.082 53.5928 21.1502 52.5741 22.5076 52.0426C22.538 52.0294 22.5712 52.0236 22.6043 52.0256C22.6374 52.0276 22.6694 52.0373 22.6981 52.0539C22.7267 52.0706 22.7512 52.0937 22.7694 52.1215C22.7875 52.1492 22.7989 52.1809 22.8027 52.2138C22.8971 53.3625 22.4781 54.7031 22.2626 55.834C22.0679 56.8734 21.454 58.2997 21.8229 59.3302C22.0472 59.9474 22.3866 60.4523 22.5636 61.1019C22.7643 61.8608 22.8588 63.4377 23.8414 63.6709C25.5204 64.0755 27.8575 59.5546 28.1998 58.5684C28.79 56.8912 28.7044 55.9994 29.2414 53.9944C29.8729 51.6321 29.985 48.9421 30.2506 46.5414C30.5073 44.1998 30.8408 41.9497 30.5457 39.6022C30.4322 38.3369 30.4322 37.0641 30.5457 35.7989C30.5605 35.0916 30.5151 34.3842 30.41 33.6846V33.3067C30.3628 32.0783 30.3245 30.8085 30.056 29.8459C29.9438 29.4414 29.1707 29.6422 29.1146 29.6894C28.4596 30.1619 28.9405 30.6639 28.3592 31.2101C28.2648 31.2987 27.9578 31.4552 27.8634 31.3637C27.4267 30.9355 27.6833 30.6107 27.2879 30.1323C26.9928 29.7632 26.2788 30.088 26.087 30.1973C25.6738 30.4335 25.8745 32.2171 25.122 32.5596C24.7384 32.7279 24.3932 32.3765 24.2722 33.0586C24.2368 33.6108 24.1925 34.29 24.2013 34.9337C24.0538 35.8697 23.8413 36.7851 23.7705 37.7625C23.679 38.9702 22.245 39.4457 21.1856 39.8591C20.1262 40.2725 18.8249 40.8128 17.6711 41.0107C16.5173 41.2085 15.3929 40.7508 14.2923 40.3847C13.7021 40.1839 12.9024 40.0215 12.4333 39.6228C11.9641 39.2242 11.3444 38.8758 11.0935 38.3767C9.95451 36.103 8.90995 33.7585 9.14897 31.1393C9.61816 25.9806 14.2038 22.2807 18.5681 20.0306C19.7101 19.44 20.8934 18.941 22.0413 18.3593C23.1071 17.784 24.2232 17.3076 25.3758 16.936C27.6162 16.2683 29.9561 15.9975 32.2897 16.1358C34.6799 16.2214 36.3679 16.313 38.5456 17.9666C39.5274 18.7228 40.2677 19.7489 40.6761 20.9194C40.9712 21.9765 41.8565 23.2345 42.5972 22.9008C42.8923 22.7679 42.8923 21.2738 43.1874 21.005C43.6595 20.6153 44.1729 22.0563 44.7896 21.9559C44.8486 21.8023 44.8723 21.6281 45.0376 21.5425C45.2951 21.4885 45.5628 21.511 45.8077 21.6074C45.9021 21.6281 46.0084 21.5129 45.9789 21.4303C45.8638 21.135 46.1766 19.4016 46.7048 19.8859C46.9468 20.1074 47.2949 20.4765 47.6372 20.2373C48.4309 19.7265 46.4214 16.7618 46.0496 16.1683Z" fill="white"/>
<path d="M35.7775 33.9325C36.5034 32.8311 37.2795 31.7503 38.0142 30.6518C39.1002 29.0337 40.7438 27.4982 42.1897 26.2225C43.6356 24.9469 45.0846 23.565 46.8787 22.9537C48.8882 22.2539 50.6382 22.0679 52.6418 22.6732C56.2744 23.7481 59.0215 26.5119 59.1071 30.6459C59.1514 32.8251 59.0275 34.7622 58.0095 36.7702C57.1242 38.5065 55.752 40.4465 54.0405 41.3678C53.0667 41.8904 51.91 42.1828 50.8772 42.5489C49.9388 42.8678 49.0328 43.3167 48.0974 43.6179C47.0498 43.9604 45.8577 43.9131 44.7925 43.8659C43.6328 43.798 42.5084 43.3373 41.39 43.2753C41.3551 43.2793 41.3218 43.292 41.2929 43.3121C41.2641 43.3322 41.2406 43.3591 41.2248 43.3905C40.9297 44.734 41.5848 47.2085 42.9127 47.5511C44.8131 48.0442 46.6958 47.9202 48.6728 47.746C50.588 47.5776 52.146 47.4713 53.9253 46.5294C54.368 46.2961 58.517 43.1956 58.514 44.0844C58.4639 44.4706 58.5383 44.8627 58.7264 45.2035C58.8681 45.5402 59.0835 45.6937 59.1691 46.1071C59.3727 47.0934 58.874 48.0088 58.3429 48.8385C57.2983 50.4242 55.5248 52.627 53.8192 53.3977C49.8945 55.1694 45.3619 57.6705 41.0772 56.5721C38.867 56.0051 37.191 54.6468 35.6566 52.9784C34.9241 52.2311 34.302 51.3829 33.8092 50.4596C33.3991 49.6299 33.2988 48.7322 32.8414 47.9202C32.3486 47.0343 32.266 46.1189 32.3574 45.0795C32.4548 43.9545 32.4725 42.6788 32.7705 41.5951C33.0686 40.5114 33.6883 39.8234 33.2545 38.787C32.9063 37.9572 32.1273 37.0389 32.0595 36.1294C32.0418 35.8902 32.2984 35.7189 32.5197 35.7071C33.6263 35.8371 33.6647 36.342 34.3346 36.5192C34.4349 36.4011 35.2404 34.7475 35.7775 33.9325ZM43.2373 36.717C43.199 36.8351 43.0956 37.1275 43.0071 37.4228C42.9951 37.4674 42.9937 37.5142 43.0031 37.5594C43.0124 37.6047 43.0321 37.6471 43.0608 37.6833C43.0895 37.7195 43.1264 37.7484 43.1683 37.7678C43.2102 37.7871 43.256 37.7964 43.3022 37.7948C45.294 37.7505 53.4031 35.7987 51.3641 32.146C49.384 28.6026 44.3233 34.5349 43.2373 36.717C43.7597 35.6747 43.2078 36.841 43.2373 36.717Z" fill="white"/>
<path d="M108.809 22.8034C108.004 22.6292 107.154 22.7591 106.331 22.6292C105.304 22.4668 104.324 22.2807 103.303 22.0888C102.562 21.9471 101.828 22.1597 101.288 21.5159C101.116 21.3122 100.993 21.4155 100.939 21.1025C100.86 20.6862 101.234 19.6852 101.299 19.2393C101.529 17.1546 102.185 15.3179 102.645 13.2922C103.12 11.178 103.235 8.86293 103.489 6.70734C103.573 5.57603 103.726 4.45089 103.946 3.33813C104.129 2.57038 104.489 1.61365 103.867 1.13824C103.799 1.08509 103.651 1.57527 103.507 1.49259C103.25 1.34199 103.554 0.816383 103.507 0.60673C103.211 -0.769303 102.822 0.547672 102.607 1.10872C101.875 3.01626 100.919 4.87066 100.149 6.7723C99.7885 7.65816 99.2633 8.36094 98.8679 9.21432C98.3957 10.2537 98.0947 11.4172 97.6875 12.4861C96.9646 14.3405 96.4186 16.2805 95.6219 18.0965C95.2442 18.9824 95.2973 19.8092 94.3914 20.0247C93.4088 20.261 92.246 20.0247 91.2427 20.0247C90.2263 20.0522 89.2147 20.1748 88.2211 20.3909C87.6461 20.4877 87.0619 20.5174 86.4801 20.4795C85.9452 20.8153 85.4317 21.1841 84.9427 21.5839C84.084 22.39 83.1042 22.7945 82.3695 23.7335C82.2616 23.931 82.2144 24.156 82.2337 24.3802L82.7561 24.4511C83.5439 24.5633 84.3083 24.8143 85.0902 24.9176C86.1526 25.0623 87.2945 25.0062 88.3362 25.3635C89.0769 25.6175 89.664 25.9246 90.4608 26.0663C90.865 26.1372 91.588 26.1076 91.9362 26.3616C92.3818 26.6746 92.3109 26.4413 92.1457 27.1205C91.6568 29.0153 91.0658 30.8823 90.3752 32.7132C89.6138 34.8097 89.2451 37.0982 88.8585 39.304C88.4365 41.7076 88.0323 44.1526 87.9733 46.6005C87.9733 46.9548 87.442 51.0505 87.4007 52.3733C87.3859 52.8576 87.1765 54.0151 87.3093 54.4403C87.5277 55.1254 87.9496 54.6736 88.466 54.4403C89.1123 55.2287 89.0945 57.2898 89.248 58.2791C89.4457 59.5606 90.0004 60.7831 91.1926 61.2319C92.3847 61.6808 92.3198 60.3461 92.612 59.4307C92.8038 58.8253 93.1756 58.1078 93.5799 57.9542C94.2527 57.8302 94.6747 58.6423 95.2412 58.3647C95.8078 58.0871 95.849 56.2002 95.9641 55.6923C96.3017 54.111 96.5148 52.5057 96.6015 50.891C96.5838 50.891 96.7403 48.7059 96.7904 47.6163C96.9085 44.9764 96.7226 42.3543 96.9675 39.7115C97.1859 37.3492 97.596 34.9869 98.0209 32.6541C98.2629 31.3283 98.6406 30.0231 99.0065 28.7298C99.3281 27.59 99.3222 27.0968 100.482 27.0909C101.532 27.0909 102.527 27.2681 103.572 27.1677C103.976 27.1264 104.652 27.2179 105.009 26.9758C105.242 26.8163 105.428 26.4443 105.67 26.2435C106.519 25.5436 107.638 25.331 108.399 24.4717C108.576 24.2739 109.355 22.9244 108.809 22.8034Z" fill="white"/>
<path d="M70.4711 46.1309C69.9134 46.878 69.4117 47.6428 68.91 48.3987C68.4763 49.0542 68.3818 49.9135 68.0011 50.5986C67.7061 51.1212 67.3667 51.4579 67.1897 52.0337C66.7795 53.3654 66.4638 54.7769 65.8057 56.0112C65.3218 56.9266 64.95 58.9936 63.6959 59.2003C63.2178 59.28 62.2204 58.3144 62.0315 57.9778C61.6951 57.4049 61.5771 56.4157 61.4118 55.7927C61.2657 55.0161 60.9447 54.283 60.4734 53.6489C60.2324 53.357 60.0744 53.0056 60.0158 52.6316C59.9571 52.2575 59.9999 51.8746 60.14 51.5228C61.3203 47.5837 61.3204 43.2755 61.9814 39.2005C62.3001 37.2487 62.2381 35.2437 62.3148 33.2742C62.4434 31.4197 62.876 29.599 63.5954 27.8852C64.3597 26.0249 64.5781 23.9785 64.9824 21.9795C65.1477 21.1645 65.3041 17.1338 66.2159 16.9596C66.8061 16.8474 67.948 19.1122 68.2106 19.5433C68.8728 20.7003 69.347 21.9551 69.6153 23.261C70.1819 25.7591 69.7893 28.2425 70.1493 30.7524C70.527 33.41 70.4445 36.0174 70.533 38.6602C70.6245 41.1199 70.9226 43.7302 70.4711 46.1191C70.3825 46.249 70.5183 45.8888 70.4711 46.1309Z" fill="white"/>
<path d="M55.5014 14.2754C53.3679 16.118 50.3521 17.0511 49.4668 20.0778C50.9954 20.2018 52.1226 19.7293 53.2086 19.2628C55.0243 18.4431 56.9121 17.7936 58.8476 17.3227C60.028 17.0599 61.1345 16.5875 62.2854 16.2302C65.0474 15.3739 67.9481 15.0668 70.7751 14.4791C72.3184 14.1573 73.3217 14.5293 75.1453 14.2429C76.9159 13.6996 77.4263 13.2744 78.2024 11.1778C78.71 8.00057 74.8561 6.53299 72.9764 6.47689C72.0911 6.45031 69.7511 6.33515 68.6357 6.70426C68.5413 6.70426 65.0385 7.14719 63.448 7.84111C61.2673 8.79488 59.5382 9.73094 57.4136 10.7674C56.4347 11.2389 55.4847 11.7684 54.5689 12.3531C54.0016 12.7307 53.5193 13.2225 53.1525 13.797C53.9492 13.6199 55.0558 13.2626 55.584 13.3718C56 13.6494 55.9529 13.8797 55.5014 14.2754Z" fill="#EC1C24"/>
<path d="M83.1859 19.26C84.682 18.3742 86.004 18.008 87.6122 17.5592C88.8781 17.2078 90.0407 17.4736 90.4539 15.9971C91.1276 15.5536 91.8847 15.2522 92.6788 15.1113C93.1952 15.0168 93.9801 15.1969 94.1926 14.4557C94.2006 14.4338 94.2043 14.4106 94.2033 14.3873C94.2022 14.364 94.1966 14.3411 94.1867 14.32C94.1768 14.2989 94.163 14.2799 94.1458 14.2642C94.1286 14.2484 94.1083 14.2363 94.0864 14.2284C93.7913 14.0541 92.9711 13.8711 93.2219 13.688C95.2875 12.8317 95.2875 12.8317 95.1606 12.5068C94.9068 11.9163 93.7884 12.1348 93.1952 12.0344C92.2258 11.88 91.2466 11.7961 90.2651 11.7834C88.4442 11.7022 86.6199 11.8261 84.8266 12.1525C84.021 12.2934 83.224 12.4798 82.4394 12.7106C81.7076 12.9498 80.8605 13.0059 80.17 13.2834C79.4795 13.561 78.8599 14.2254 78.2107 14.6329C77.4229 15.129 76.75 15.569 76.1922 16.3338C72.5981 21.2591 70.9664 27.7229 73.15 33.608C74.3068 36.7321 76.0565 39.809 76.8975 43.0571C77.6294 45.8712 76.9242 49.2257 75.4429 51.6559C74.5576 53.0998 73.3771 54.3134 72.4712 55.7485C71.1079 57.0803 70.1548 57.9602 68.2367 58.8047C66.6314 59.5134 64.9612 60.7389 63.2202 60.8245C59.927 60.9869 57.3391 61.7104 54.0725 61.2202C47.554 60.2782 43.0657 59.0351 37.1404 56.9267L31.578 55.3204C30.3976 56.2062 32.304 57.0094 31.8141 57.3874C31.3243 57.7653 30.1114 57.7299 31.454 58.6984C34.0951 60.606 40.7848 63.0273 43.8153 64.2262C49.0472 66.2932 53.9603 67.9645 59.2365 68.3927C64.5924 68.8268 70.2374 67.9822 74.6283 64.74C75.4487 64.1494 75.9976 63.9752 77.7917 62.4515C79.0134 61.4121 80.418 60.169 81.4066 58.9081C82.224 57.8539 82.7227 56.5458 83.3246 55.3469C84.086 53.8469 84.8 52.6894 85.1895 51.0151C85.5611 49.3815 85.7325 47.7087 85.7 46.0336C85.6769 42.5874 85.0868 39.1685 83.9531 35.9142C83.4641 34.5711 82.8885 33.2612 82.2299 31.9928C81.499 30.564 80.8736 29.0836 80.3589 27.5635C79.7687 25.8538 79.6064 24.0201 80.1759 22.4728C80.7189 20.9845 81.8786 20.0455 83.1859 19.26Z" fill="white"/>
<path d="M20.3622 69.6296C20.3592 69.6088 20.3516 69.5889 20.3399 69.5715C20.3281 69.5541 20.3125 69.5396 20.2943 69.5291C20.2762 69.5185 20.2558 69.5123 20.2348 69.5108C20.2139 69.5093 20.1928 69.5125 20.1733 69.5204C20.0546 69.57 19.9324 69.6105 19.8075 69.6414C19.6865 69.668 19.53 69.7566 19.4356 69.5942C19.4079 69.5301 19.3996 69.4593 19.4117 69.3906C19.4237 69.3219 19.4556 69.2582 19.5035 69.2074C19.6185 69.042 19.7485 68.8825 19.8872 68.7083C19.8982 68.6926 19.9037 68.6738 19.9032 68.6546C19.9026 68.6354 19.8958 68.6169 19.8838 68.602C19.8719 68.587 19.8553 68.5763 19.8367 68.5715C19.8182 68.5667 19.7985 68.5681 19.7808 68.5754C19.6628 68.6345 19.589 68.7526 19.4857 68.794C19.3825 68.8353 19.1906 69.045 19.0254 68.8944C18.8601 68.7438 18.8956 68.5518 19.0461 68.3806C19.0874 68.3304 19.17 68.2802 19.111 68.1886C18.9575 68.1886 18.872 68.3097 18.7629 68.3894C18.7408 68.4044 18.7152 68.4134 18.6887 68.4155C18.6621 68.4176 18.6355 68.4128 18.6114 68.4015C18.5873 68.3901 18.5666 68.3727 18.5512 68.3509C18.5358 68.3292 18.5264 68.3037 18.5238 68.2772C18.5071 68.0548 18.5537 67.8323 18.6581 67.6353C18.7626 67.4383 18.9206 67.2749 19.114 67.164C19.8205 66.5732 20.6297 66.1178 21.5012 65.8204C22.4303 65.5512 23.4143 65.5349 24.3518 65.7732C26.0722 66.2073 27.4 67.2112 27.9813 68.9446C28.3207 69.9544 28.5243 71.0116 28.0315 72.0805C27.3838 73.5337 26.242 74.7098 24.8091 75.3995C25.1002 75.635 25.4194 75.8334 25.7594 75.9901C26.3109 76.2858 26.8353 76.6296 27.3263 77.0177C28.4152 77.8474 29.4451 78.7569 30.59 79.5099C31.3015 79.9794 32.1058 80.2898 32.9481 80.4197C33.7904 80.5497 34.6508 80.4962 35.4706 80.2629C36.6833 79.9905 37.7711 79.3226 38.5631 78.3642C38.6551 78.2515 38.769 78.1586 38.8978 78.0911C39.0267 78.0236 39.1677 77.9829 39.3127 77.9714C39.3493 77.965 39.3872 77.9699 39.421 77.9855C39.4548 78.0011 39.4831 78.0266 39.502 78.0587C39.5209 78.0908 39.5296 78.1279 39.5269 78.1651C39.5242 78.2023 39.5103 78.2377 39.4869 78.2667C39.36 78.4469 39.2124 78.6122 39.0383 78.813C39.0283 78.8237 39.0224 78.8376 39.0216 78.8522C39.0208 78.8668 39.0253 78.8812 39.0341 78.8929C39.043 78.9045 39.0556 78.9127 39.0699 78.9159C39.0841 78.9191 39.0991 78.9172 39.1121 78.9105C39.4455 78.7303 39.5753 78.3494 39.9087 78.2726C39.9914 78.3967 39.7524 78.5059 39.9087 78.5679C39.9884 78.6063 40.1419 78.4675 40.2038 78.6418C40.216 78.7094 40.2125 78.7789 40.1936 78.8449C40.1747 78.911 40.1409 78.9718 40.0948 79.0227C40.0357 79.1113 39.8734 79.1201 39.9 79.2884C40.0741 79.3268 40.195 79.1998 40.3071 79.1201C40.5373 78.9636 40.6022 79.2205 40.7439 79.2796C40.8855 79.3386 40.7439 79.4804 40.6937 79.5749C40.4331 79.9414 40.1233 80.2702 39.773 80.5522C38.9379 81.2964 38.0645 81.9696 36.9609 82.3033C35.8309 82.682 34.6437 82.8619 33.4523 82.8348C32.0394 82.7864 30.6647 82.3635 29.4686 81.6094C28.2617 80.8387 27.2082 79.8701 26.0573 79.0256C25.1437 78.3217 24.138 77.7464 23.0681 77.3159C22.9216 77.2621 22.7705 77.2216 22.6167 77.1948C22.4869 77.1712 22.3836 77.2126 22.3836 77.372C22.3836 77.4134 22.3836 77.4517 22.3836 77.4901C22.3836 78.5856 22.2124 79.6723 22.2242 80.7708C22.2124 81.3326 22.1711 81.8934 22.1003 82.4509C22.1003 82.5868 22.0413 82.7285 21.8495 82.7078C21.5872 82.6581 21.3221 82.6245 21.0557 82.6074C20.9406 82.6074 20.9494 82.4716 20.9347 82.3742C20.9081 82.2029 20.9877 82.0051 20.8992 81.8279C20.8916 81.8151 20.8802 81.8049 20.8667 81.7986C20.8531 81.7924 20.838 81.7904 20.8233 81.793C20.8086 81.7955 20.7949 81.8025 20.7842 81.813C20.7736 81.8234 20.7664 81.8369 20.7635 81.8515C20.7222 82.1055 20.6838 82.3535 20.6425 82.6252C20.6396 82.6468 20.6325 82.6676 20.6213 82.6863C20.6101 82.7051 20.5952 82.7213 20.5775 82.734C20.5598 82.7468 20.5397 82.7557 20.5184 82.7604C20.4971 82.765 20.4751 82.7652 20.4537 82.761C20.2914 82.7226 20.1203 82.7817 20.0347 82.6606C19.9434 82.4666 19.9275 82.2455 19.9903 82.0405C20.0316 81.7157 19.9904 81.385 20.0199 81.0542C20.02 81.0423 20.016 81.0308 20.0085 81.0216C20.0009 81.0124 19.9903 81.0062 19.9787 81.0041C19.967 81.002 19.9549 81.004 19.9447 81.01C19.9344 81.0159 19.9265 81.0253 19.9225 81.0365C19.8856 81.1381 19.8638 81.2446 19.8576 81.3525C19.8045 81.7836 19.8103 82.0818 19.7572 82.4509C19.7474 82.5304 19.7161 82.6056 19.6667 82.6686C19.6173 82.7315 19.5517 82.7798 19.4769 82.8082C19.2379 82.8968 19.1818 82.6695 19.0904 82.5277C18.9687 82.3464 18.8868 82.1413 18.8502 81.926C18.8136 81.7107 18.823 81.49 18.8778 81.2787C19.0342 80.2954 19.1582 79.3061 19.2999 78.3258C19.595 76.2352 19.9077 74.1475 20.1114 72.048C20.1792 71.3275 20.2884 70.6159 20.3651 69.9013C20.3749 69.8109 20.374 69.7197 20.3622 69.6296ZM23.5167 68.1355C23.0091 68.0912 22.9885 68.0912 22.9767 68.5754C22.9442 69.8038 22.7848 71.0204 22.652 72.237C22.623 72.4984 22.628 72.7624 22.6669 73.0225C22.72 73.362 22.7288 73.3768 23.0475 73.2971C23.6415 73.163 24.1905 72.877 24.641 72.4671C25.0915 72.0572 25.428 71.5374 25.6177 70.9584C25.7413 70.6359 25.7721 70.2852 25.7069 69.9461C25.6417 69.6069 25.4832 69.2927 25.2489 69.039C25.0459 68.7686 24.785 68.547 24.4852 68.3906C24.1855 68.2343 23.8545 68.1471 23.5167 68.1355Z" fill="white"/>
<path d="M7.17774 77.6293C7.19127 77.6329 7.20567 77.632 7.21866 77.6268C7.23166 77.6216 7.24263 77.6124 7.24993 77.6004C7.25723 77.5884 7.26045 77.5744 7.25915 77.5605C7.25785 77.5465 7.25211 77.5334 7.24273 77.523C7.06159 77.3596 6.87041 77.2077 6.67027 77.0682C6.48437 76.9088 6.49028 76.8999 6.75586 76.7464C6.77337 76.7403 6.79016 76.7324 6.806 76.7228C7.31355 76.3182 7.31059 76.3212 7.82109 76.6932C7.96397 76.8461 8.15628 76.9434 8.364 76.9679C8.93647 73.7197 9.32897 70.4095 9.86898 67.123C9.63586 67.0108 9.37325 67.3179 9.15489 67.1407C9.03089 67.0209 8.9164 66.8916 8.81254 66.7539C8.77723 66.7056 8.76177 66.6456 8.76946 66.5862C8.77715 66.5268 8.80744 66.4727 8.85389 66.435C8.97488 66.3464 9.10471 66.2667 9.21685 66.1692C9.23302 66.1545 9.24329 66.1344 9.24595 66.1127C9.24861 66.091 9.24353 66.069 9.2314 66.0508C9.21926 66.0326 9.20088 66.0193 9.17982 66.0134C9.15875 66.0075 9.13638 66.0094 9.11656 66.0186C9.00124 66.0806 8.88977 66.1496 8.783 66.2253C8.69223 66.2923 8.59301 66.3469 8.48792 66.3878C8.38464 66.4173 8.30494 66.3346 8.24888 66.2519C8.19281 66.1692 8.2637 66.1131 8.31977 66.06L8.58532 65.809C8.5982 65.793 8.60516 65.773 8.60491 65.7524C8.60467 65.7318 8.59728 65.712 8.58402 65.6963C8.57076 65.6806 8.55251 65.67 8.53229 65.6663C8.51208 65.6626 8.49116 65.6661 8.47322 65.6761C8.39945 65.7352 8.34044 65.8119 8.25781 65.8326C8.17519 65.8533 8.03056 65.9625 7.93319 65.868C7.88482 65.8207 7.8557 65.7571 7.85135 65.6895C7.84699 65.6219 7.86768 65.5551 7.90956 65.5019C8.17404 65.0225 8.56109 64.6221 9.03098 64.3414C10.3913 63.553 11.8461 63.0865 13.4573 63.2252C14.7055 63.3315 15.7855 63.7922 16.538 64.8139C17.0209 65.4278 17.3161 66.1683 17.3884 66.9462C17.4606 67.7242 17.3067 68.5064 16.9452 69.1989C16.6355 69.8204 16.2121 70.3783 15.697 70.8436C15.7778 70.8791 15.8549 70.9226 15.9271 70.9735C16.8184 71.5038 17.4886 72.3384 17.8139 73.3237C18.1392 74.3089 18.0978 75.3787 17.6976 76.3359C17.2687 77.3514 16.5759 78.2334 15.6911 78.8902C13.7877 80.3666 11.6602 80.7062 9.38211 80.1422C8.23766 79.8588 7.16966 79.3264 6.25415 78.5831C6.02399 78.397 5.90597 78.211 6.05647 77.9571C6.0677 77.9395 6.08235 77.9244 6.09969 77.9129C6.11704 77.9013 6.13666 77.8935 6.15718 77.8899C6.17771 77.8862 6.19875 77.8869 6.219 77.8919C6.23924 77.8969 6.25822 77.906 6.27476 77.9187C6.3146 77.9684 6.36953 78.004 6.43124 78.0199C6.49294 78.0359 6.55814 78.0315 6.61711 78.0073C6.54038 77.7445 6.19512 77.6913 6.0948 77.4167C6.08809 77.3969 6.08561 77.376 6.08759 77.3552C6.08957 77.3344 6.09601 77.3143 6.10632 77.2962C6.11664 77.278 6.13069 77.2623 6.14753 77.25C6.16437 77.2377 6.18361 77.2291 6.20401 77.2248C6.36882 77.1945 6.53904 77.226 6.68209 77.3133C6.85324 77.399 6.96823 77.5673 7.17774 77.6293ZM11.4536 77.9246C11.5903 77.932 11.7271 77.932 11.8637 77.9246C13.5162 77.7622 14.7261 76.9501 15.4225 75.4294C15.5907 75.1037 15.6528 74.7334 15.5998 74.3706C15.5469 74.0078 15.3817 73.6707 15.1274 73.4067C14.8945 73.1666 14.5999 72.9956 14.276 72.9128C13.952 72.8299 13.6115 72.8384 13.292 72.9372C12.7528 73.1048 12.2318 73.3264 11.7369 73.5986C11.5932 73.6591 11.4688 73.7581 11.3777 73.8847C11.2866 74.0113 11.2322 74.1606 11.2205 74.3162C11.0848 75.2818 10.9254 76.2503 10.8015 77.2188C10.71 77.9541 10.7189 77.9571 11.4536 77.9246ZM14.9415 67.4272C14.8795 66.0482 14.0149 65.6171 12.8582 65.6023C12.5631 65.6023 12.5159 65.8149 12.4834 66.0364C12.3064 67.2175 12.1283 68.3987 11.9493 69.5798C11.9168 69.7865 11.9789 69.8751 12.1973 69.8426C12.8626 69.7737 13.4917 69.5062 14.0031 69.0749C14.2648 68.88 14.4833 68.633 14.6448 68.3494C14.8064 68.0658 14.9074 67.7518 14.9415 67.4272Z" fill="white"/>
<path d="M44.3054 83.2336C44.2493 83.5289 44.3378 83.8241 44.2375 84.1194C44.2283 84.1424 44.2123 84.1622 44.1918 84.1761C44.1713 84.19 44.1471 84.1974 44.1224 84.1974C44.0976 84.1974 44.0733 84.19 44.0528 84.1761C44.0323 84.1622 44.0164 84.1424 44.0072 84.1194C43.8838 83.8739 43.785 83.6167 43.7122 83.3517C43.4672 82.2355 43.001 81.199 42.6292 80.1301C42.1305 78.6921 41.5728 77.2747 41.1154 75.8189C40.5843 74.124 39.9498 72.4615 39.3655 70.7991C39.244 70.3686 39.0921 69.9472 38.9111 69.5382C38.7753 69.2842 38.9111 69.0214 38.9967 68.7203C39.0039 68.6951 39.0182 68.6726 39.0379 68.6554C39.0576 68.6383 39.0819 68.6271 39.1078 68.6234C39.1336 68.6196 39.1599 68.6234 39.1837 68.6343C39.2074 68.6452 39.2276 68.6628 39.2416 68.6848C39.3621 68.8875 39.4676 69.0987 39.5573 69.3167C39.5628 69.3332 39.5747 69.3468 39.5902 69.3545C39.6056 69.3623 39.6236 69.3636 39.64 69.3581C39.6564 69.3526 39.67 69.3408 39.6778 69.3253C39.6855 69.3098 39.6867 69.2918 39.6812 69.2754C39.6133 69.0008 39.4394 68.7586 39.3686 68.4899C39.3548 68.4317 39.364 68.3704 39.3942 68.3187C39.4244 68.267 39.4733 68.229 39.5308 68.2124C39.8259 68.1267 39.8879 68.1858 40.0266 68.5076C40.0561 68.5756 40.0708 68.6464 40.0973 68.7143C40.1088 68.7345 40.1271 68.7499 40.1489 68.7578C40.1707 68.7657 40.1946 68.7655 40.2164 68.7573C40.2381 68.7492 40.2562 68.7335 40.2674 68.7132C40.2785 68.6928 40.282 68.6692 40.2773 68.6464C40.236 68.5283 40.1711 68.422 40.1269 68.3039C40.0826 68.1858 39.9793 67.9909 40.2184 67.9407C40.3541 67.9112 40.5547 67.7045 40.6374 68.0322C40.6516 68.0804 40.6746 68.1254 40.7052 68.1651C40.7174 68.1828 40.7356 68.1955 40.7564 68.2008C40.7772 68.206 40.7992 68.2036 40.8183 68.1938C40.8375 68.1841 40.8525 68.1677 40.8604 68.1478C40.8684 68.1278 40.8687 68.1056 40.8616 68.0854C40.8439 68.0352 40.8232 67.985 40.8114 67.9377C40.8043 67.9061 40.8069 67.8731 40.8186 67.8429C40.8304 67.8127 40.8509 67.7867 40.8776 67.7683C40.9042 67.7498 40.9358 67.7398 40.9682 67.7395C41.0006 67.7392 41.0324 67.7486 41.0594 67.7665C41.2454 67.9181 41.3886 68.1155 41.4754 68.3393C41.8245 69.0801 42.1118 69.8485 42.3341 70.6367C42.6292 71.6082 42.9243 72.5796 43.2548 73.5393C43.5499 74.4045 43.724 75.311 44.0663 76.1526C44.2611 76.6339 44.4086 77.0385 44.5768 77.5995C44.5839 77.6221 44.5967 77.6424 44.6143 77.6583C44.6318 77.6742 44.6534 77.6852 44.6765 77.69C44.6997 77.6948 44.7237 77.6933 44.7461 77.6857C44.7685 77.6781 44.7886 77.6647 44.804 77.6468C44.8464 77.592 44.8729 77.5266 44.8807 77.4578C45.0902 76.2441 45.4148 75.0541 45.5565 73.8287C45.6007 73.4389 45.6214 73.0462 45.6775 72.6623C45.7011 72.5176 45.7011 72.2489 45.9903 72.4409C46.1674 72.2371 46.3561 72.1869 46.5597 72.4025C46.722 72.0363 47.032 72.2873 47.2621 72.2548C47.4521 72.2372 47.6421 72.2866 47.7994 72.3944C47.9568 72.5023 48.0716 72.6618 48.1238 72.8454C48.2866 73.4082 48.503 73.954 48.77 74.4754C49.2776 75.6565 49.7703 76.8731 50.266 78.072C50.2764 78.0988 50.2955 78.1214 50.3204 78.136C50.3452 78.1505 50.3742 78.1562 50.4026 78.1521C50.4311 78.148 50.4573 78.1343 50.477 78.1133C50.4967 78.0923 50.5087 78.0652 50.511 78.0365C50.511 78.0159 50.511 77.9981 50.511 77.9804C50.6202 76.9115 50.8651 75.8573 50.9773 74.7913C51.0628 73.938 51.1838 73.0846 51.2723 72.2312C51.3048 71.8828 51.3284 71.5166 51.6559 71.2863C51.7503 71.2184 51.889 71.1534 51.9333 71.3247C52.0543 71.7883 52.19 71.5166 52.3317 71.3453C52.3613 71.311 52.4022 71.2883 52.4471 71.2812C52.4919 71.2742 52.5378 71.2833 52.5766 71.307C52.6998 71.3784 52.7958 71.4889 52.8492 71.621C52.9027 71.7531 52.9106 71.8992 52.8717 72.0363C52.8695 72.0525 52.8725 72.0691 52.8803 72.0834C52.8882 72.0978 52.9004 72.1093 52.9152 72.1163C52.93 72.1232 52.9467 72.1252 52.9628 72.122C52.9788 72.1187 52.9935 72.1104 53.0045 72.0983C53.0908 71.9591 53.1367 71.7986 53.1372 71.6347C53.1404 71.6104 53.1486 71.5871 53.1612 71.5661C53.1738 71.5451 53.1906 71.527 53.2106 71.5128C53.2305 71.4987 53.2532 71.4888 53.2772 71.4839C53.3011 71.479 53.3258 71.479 53.3498 71.4841C53.4496 71.5036 53.5482 71.5292 53.6449 71.5609C53.6928 71.5708 53.736 71.5966 53.7676 71.6341C53.7992 71.6716 53.8173 71.7186 53.8189 71.7676C53.8441 72.1159 53.8382 72.4657 53.8012 72.8129C53.5386 74.2155 53.2966 75.6211 53.0989 77.0326C52.851 78.8043 52.5648 80.576 52.3052 82.3654C52.255 82.6991 52.2285 83.0328 52.1931 83.3694C52.1483 83.6237 52.0475 83.8648 51.898 84.0751C51.7209 84.3704 51.529 84.0604 51.3785 84.1932C51.3195 84.2464 51.2723 84.1135 51.2723 84.0367C51.2723 83.8891 51.3904 83.7415 51.2723 83.582C51.1248 83.582 51.1631 83.706 51.1395 83.7798C51.1159 83.8537 51.054 83.9541 50.9389 83.8684C50.8772 83.8239 50.8198 83.7734 50.7678 83.7178C50.5818 83.5082 50.6556 84.2139 50.3989 83.8153C50.3133 83.6854 50.21 83.7444 50.1038 83.7946C50.0551 83.8176 49.9993 83.8209 49.9482 83.8038C49.8971 83.7868 49.8545 83.7507 49.8293 83.7031C49.1418 82.3713 48.7138 80.9244 48.2269 79.5011C48.0239 78.8246 47.7259 78.1803 47.3417 77.5877C47.1646 78.4558 46.9729 79.324 46.8165 80.198C46.7693 80.4667 46.728 80.7354 46.672 81.0042C46.5242 81.5711 46.4079 82.1458 46.3237 82.7257C46.2918 83.1355 46.1545 83.5302 45.9253 83.8714C45.903 83.9035 45.8714 83.928 45.8348 83.9417C45.7982 83.9554 45.7584 83.9575 45.7206 83.9479C45.6827 83.9383 45.6487 83.9173 45.623 83.8878C45.5974 83.8583 45.5813 83.8217 45.5771 83.7828C45.5803 83.5757 45.5706 83.3686 45.5477 83.1627C45.5477 83.1439 45.5402 83.1259 45.5269 83.1126C45.5136 83.0993 45.4956 83.0918 45.4768 83.0918C45.458 83.0918 45.4401 83.0993 45.4268 83.1126C45.4135 83.1259 45.406 83.1439 45.406 83.1627C45.3795 83.4078 45.3794 83.6411 45.3647 83.8714C45.363 83.8924 45.3547 83.9123 45.3408 83.9281C45.3269 83.944 45.3082 83.9549 45.2876 83.9592C45.267 83.9635 45.2454 83.961 45.2264 83.9521C45.2073 83.9432 45.1916 83.9284 45.1817 83.9098C45.1411 83.8039 45.0854 83.7045 45.0164 83.6145C44.9992 83.5952 44.9776 83.5804 44.9535 83.5712C44.9293 83.562 44.9032 83.5587 44.8775 83.5616C44.8518 83.5645 44.8273 83.5734 44.8058 83.5878C44.7843 83.6021 44.7665 83.6214 44.7539 83.644C44.7015 83.7777 44.6735 83.9197 44.6712 84.0633C44.6677 84.0815 44.6579 84.0978 44.6437 84.1096C44.6294 84.1213 44.6114 84.1278 44.593 84.1278C44.5745 84.1278 44.5566 84.1213 44.5424 84.1096C44.5281 84.0978 44.5184 84.0815 44.5149 84.0633C44.4617 83.768 44.5147 83.4993 44.4705 83.2247C44.4693 83.2028 44.4596 83.1822 44.4433 83.1675C44.4269 83.1529 44.4054 83.1453 44.3835 83.1465C44.3615 83.1476 44.3411 83.1575 44.3264 83.1738C44.3117 83.1901 44.3042 83.2116 44.3054 83.2336Z" fill="white"/>
<path d="M79.8456 73.0609C79.943 73.2262 79.94 73.3237 79.7128 73.2942C79.58 73.2794 79.4649 73.1878 79.3262 73.1908C79.319 73.1912 79.3121 73.1932 79.3059 73.1969C79.2997 73.2005 79.2945 73.2056 79.2908 73.2117C79.287 73.2178 79.2848 73.2248 79.2843 73.2319C79.2838 73.2391 79.285 73.2462 79.2879 73.2528C79.2934 73.2706 79.3013 73.2875 79.3115 73.303C79.4119 73.4121 79.4676 73.5549 79.4676 73.7031C79.4676 73.8514 79.4119 73.9942 79.3115 74.1032C79.0577 74.4428 79.0164 74.4546 78.5561 74.2745C78.5561 74.2745 78.5384 74.2745 78.5414 74.2745C78.6164 75.0849 78.5994 75.9011 78.4911 76.7077C78.3668 78.2608 78.1272 79.8025 77.7741 81.32C77.479 82.4598 77.1456 83.5819 76.458 84.5357C75.7705 85.4895 75.1862 86.1686 73.9557 86.7208C73.4782 86.9518 72.9852 87.1491 72.4803 87.3114C71.9145 87.513 71.3288 87.6535 70.7332 87.7307C70.1873 87.8134 69.6415 87.8016 69.0927 87.8901C68.1564 88.0158 67.2088 88.0336 66.2686 87.9433C65.6784 87.902 65.106 87.896 64.5247 87.9108C64.1352 87.9108 63.7398 87.8488 63.3443 87.837C63.2685 87.8328 63.1943 87.8129 63.1265 87.7787C63.0587 87.7445 62.9987 87.6967 62.9503 87.6382C62.9018 87.5797 62.8659 87.5118 62.8448 87.4388C62.8237 87.3658 62.8181 87.2893 62.8279 87.2139C62.8283 87.1852 62.8343 87.1569 62.8457 87.1305C62.857 87.1042 62.8734 87.0803 62.8939 87.0603C62.9145 87.0403 62.9388 87.0245 62.9654 87.0139C62.992 87.0033 63.0206 86.998 63.0493 86.9984C63.3207 86.9718 63.595 86.9511 63.8665 86.9334L64.5099 86.8891C64.5247 86.8891 64.539 86.8832 64.5495 86.8727C64.56 86.8622 64.5659 86.8479 64.5659 86.833C64.5659 86.8181 64.56 86.8039 64.5495 86.7933C64.539 86.7828 64.5247 86.7769 64.5099 86.7769C64.1351 86.7326 63.7426 86.7769 63.3295 86.7533C63.307 86.7509 63.2858 86.7416 63.2688 86.7266C63.2519 86.7116 63.2399 86.6917 63.2347 86.6697C63.2295 86.6476 63.2314 86.6245 63.2399 86.6035C63.2484 86.5825 63.2631 86.5647 63.2822 86.5525C63.8459 86.2159 64.4626 86.3665 65.0528 86.2779C65.0663 86.2769 65.0797 86.2733 65.0918 86.2672C65.104 86.2611 65.1148 86.2527 65.1237 86.2424C65.1326 86.2321 65.1394 86.2202 65.1437 86.2073C65.148 86.1944 65.1497 86.1807 65.1487 86.1671C65.1478 86.1536 65.1442 86.1403 65.1381 86.1282C65.132 86.116 65.1236 86.1051 65.1133 86.0962C65.103 86.0873 65.091 86.0805 65.0781 86.0762C65.0652 86.0719 65.0516 86.0702 65.0381 86.0712C64.5305 86.0712 64.026 86.0712 63.5184 86.0712C63.4195 86.0724 63.3207 86.0645 63.2233 86.0476C62.9813 86.0092 62.9282 85.8113 62.9282 85.6194C62.9282 85.4275 63.0847 85.3595 63.2647 85.3714C64.1942 85.4363 65.1266 85.3477 66.0591 85.4245C66.8019 85.4644 67.5468 85.4347 68.284 85.3359C69.2946 85.2296 70.2914 85.0189 71.2586 84.707C71.9199 84.4904 72.5312 84.1438 73.0567 83.6874C73.5822 83.231 74.0113 82.6741 74.3186 82.0494C74.4632 81.7718 74.5871 81.4854 74.7169 81.2019C74.8202 80.9745 74.7671 80.8623 74.5045 80.7915C73.742 80.6201 73.009 80.3365 72.3297 79.9499C71.6667 79.5677 71.1042 79.033 70.6885 78.3902C70.2729 77.7473 70.0161 77.0147 69.9394 76.2529C69.8503 75.5927 69.8783 74.922 70.0222 74.2715C70.3763 72.7626 71.3559 71.7734 72.6985 71.1238C74.9943 70.0135 77.24 70.2379 79.4207 71.4752C79.7446 71.6926 80.0332 71.9585 80.2764 72.2636C80.5332 72.5382 80.4978 72.6298 80.3561 72.7833C80.3148 72.8222 80.2654 72.8514 80.2115 72.8689C79.9016 72.925 79.881 72.7951 79.7866 72.6741C79.5788 72.3978 79.2915 72.1917 78.9633 72.0835C78.9426 72.0737 78.919 72.0723 78.8974 72.0795C78.8758 72.0867 78.8578 72.102 78.8471 72.1222C78.8365 72.1424 78.834 72.1659 78.8402 72.1878C78.8464 72.2098 78.861 72.2284 78.8807 72.24C79.0666 72.3847 79.2583 72.5353 79.4442 72.6622C79.5882 72.7844 79.7225 72.9177 79.8456 73.0609ZM75.9622 73.4566C76.0035 72.8955 75.9917 72.9044 75.4546 72.9162C74.8877 72.934 74.3304 73.0677 73.8169 73.3089C73.2168 73.5613 72.7355 74.0334 72.4713 74.6288C72.0464 75.5915 72.4005 76.9291 73.2828 77.6437C73.5295 77.853 73.8179 78.0073 74.1287 78.0964C74.4396 78.1855 74.7658 78.2073 75.0858 78.1605C75.3956 78.1132 75.5462 78.0069 75.5875 77.6526C75.7498 76.2559 75.9327 74.8651 75.9622 73.4566Z" fill="white"/>
<path d="M58.9863 85.7347C59.1132 84.5535 59.1899 83.5023 59.3257 82.3802C59.4702 81.1607 59.5764 79.9618 59.6473 78.7482C59.6768 78.2728 59.786 77.8299 59.8421 77.3692C59.9689 76.3062 60.0043 75.252 60.0781 74.186C60.0778 74.0861 60.0917 73.9867 60.1194 73.8908C60.1814 73.7077 60.1489 73.4862 60.3613 73.3888C60.4381 73.3563 60.6122 73.5689 60.7361 73.5896C60.8459 73.5711 60.9482 73.522 61.0312 73.4478C61.0648 73.3668 61.1269 73.301 61.2058 73.2629C61.2847 73.2248 61.3749 73.217 61.4591 73.2411C61.6362 73.3002 61.4975 73.4714 61.5506 73.5955C61.7985 73.5955 61.7365 73.1762 61.7866 72.9695C61.7967 72.941 61.8124 72.9149 61.833 72.8928C61.8536 72.8707 61.8786 72.8532 61.9064 72.8412C61.9341 72.8293 61.9639 72.8233 61.9941 72.8235C62.0243 72.8237 62.0542 72.8302 62.0817 72.8425C62.6195 73.1694 63.0265 73.6738 63.2325 74.2687C63.6427 75.2107 64.1325 76.0404 64.6047 76.9588C64.8998 77.5287 65.1949 78.1074 65.4752 78.698C65.4806 78.7167 65.4886 78.7346 65.4989 78.7512C65.5137 78.7811 65.5376 78.8056 65.5673 78.8209C65.597 78.8363 65.6309 78.8417 65.6638 78.8364C65.6968 78.8312 65.7272 78.8154 65.7506 78.7916C65.774 78.7677 65.7893 78.737 65.794 78.7039C65.7998 78.6529 65.7998 78.6014 65.794 78.5504C65.9002 77.1212 66.1127 75.7127 66.2042 74.2776C66.2661 73.2913 66.3723 72.2873 66.4608 71.3011C66.4932 70.9527 66.511 70.6013 66.5376 70.2558C66.5389 70.1981 66.5554 70.1418 66.5854 70.0925C66.6155 70.0432 66.6581 70.0028 66.7088 69.9753C66.8858 69.8955 66.8444 70.0786 66.9093 70.1554C66.9742 70.2322 67.0599 70.2174 67.1455 70.1554C67.2199 70.0762 67.2825 69.9867 67.3313 69.8896C67.3446 69.8597 67.3669 69.8347 67.395 69.8181C67.4232 69.8014 67.4558 69.7941 67.4884 69.797C67.521 69.8 67.5518 69.813 67.5766 69.8344C67.6013 69.8558 67.6188 69.8844 67.6264 69.9162V69.9428C67.6363 69.9678 67.6511 69.9905 67.6698 70.0098C67.6885 70.0291 67.711 70.0444 67.7357 70.055C68.0721 70.1701 68.1723 70.1938 68.1753 70.5629C68.1753 70.7873 68.1753 71.0412 68.1753 71.2745C68.1753 71.3159 68.2403 71.3306 68.2521 71.2922C68.3448 70.9144 68.403 70.529 68.4261 70.1406C68.4285 70.1141 68.4368 70.0884 68.4503 70.0655C68.4638 70.0425 68.4822 70.0229 68.5042 70.0079C68.5262 69.9929 68.5513 69.983 68.5775 69.9789C68.6038 69.9748 68.6308 69.9766 68.6564 69.9841C68.8511 70.0461 68.9692 70.1967 69.1728 70.2794C69.2997 70.3296 69.2671 70.495 69.2435 70.6426C69.1359 71.3783 69.0728 72.1198 69.0546 72.8632C69.0546 73.0226 68.9396 74.1742 68.916 74.5079C68.8806 75.0601 68.8392 75.5296 68.7536 76.0611C68.553 77.2806 68.4762 78.2137 68.2372 79.5307C68.0425 80.6233 67.8507 82.141 67.5999 83.2986C67.5727 83.3617 67.5325 83.4184 67.4821 83.4651C67.4316 83.5118 67.3719 83.5474 67.3069 83.5697C67.2418 83.5919 67.1729 83.6003 67.1044 83.5943C67.036 83.5883 66.9695 83.568 66.9093 83.5348C66.8584 83.5064 66.801 83.4914 66.7426 83.4914C66.6843 83.4914 66.6269 83.5064 66.5759 83.5348C66.3074 83.6559 66.1628 83.7828 65.8235 83.6942C65.6346 83.644 65.5283 83.5407 65.3218 83.3163C64.9161 82.8252 64.5556 82.2985 64.2447 81.7424C63.5572 80.3487 63.0438 79.1439 62.312 77.8505C62.1971 77.9904 62.1401 78.169 62.1526 78.3496C62.0051 79.9057 61.8575 81.4501 61.707 82.9974C61.6037 84.0545 61.4974 85.0969 61.4119 86.154C61.384 86.465 61.2916 86.7667 61.1404 87.0398C61.1303 87.0597 61.1149 87.0763 61.0959 87.088C61.0769 87.0996 61.0549 87.1058 61.0326 87.1058C61.0104 87.1058 60.9885 87.0996 60.9695 87.088C60.9505 87.0763 60.9352 87.0597 60.925 87.0398C60.7893 86.7209 60.9044 86.3873 60.8512 86.0595C60.8512 86.0313 60.84 86.0043 60.8201 85.9843C60.8002 85.9644 60.7732 85.9532 60.745 85.9532C60.7169 85.9532 60.6898 85.9644 60.6698 85.9843C60.6499 86.0043 60.6387 86.0313 60.6387 86.0595C60.6387 86.092 60.6387 86.1304 60.6387 86.1569C60.6222 86.2931 60.6144 86.4302 60.6152 86.5674C60.6152 86.8036 60.4617 87.0576 60.2256 87.0517C59.9305 87.0517 59.9895 86.7416 60.0043 86.5615C60.0456 86.1038 60.0604 85.6756 60.0752 85.212C60.0782 85.1589 60.0782 85.1057 60.0752 85.0526C60.0723 85.0402 60.0654 85.0293 60.0554 85.0214C60.0455 85.0135 60.0332 85.0092 60.0206 85.0092C60.0079 85.0092 59.9956 85.0135 59.9857 85.0214C59.9758 85.0293 59.9689 85.0402 59.966 85.0526C59.8391 85.7111 59.9099 86.3754 59.6236 86.9985C59.5764 87.1019 59.4643 87.0812 59.3463 87.031C58.9626 86.8509 58.9568 85.9975 58.9863 85.7347Z" fill="white"/>
<path d="M39.508 74.4046C39.5995 74.2481 39.6999 74.2481 39.8504 74.2835C40.0009 74.319 39.986 74.4489 39.9831 74.5611C39.9884 74.6982 39.9558 74.8341 39.8887 74.9538C38.8647 76.6517 37.4394 77.8417 35.4889 78.2906C34.6623 78.5117 33.7919 78.5087 32.9668 78.2819C32.1418 78.0551 31.3919 77.6127 30.7941 77.0002C28.9882 75.2285 28.4688 73.1113 29.1799 70.7224C29.4519 69.764 30.0121 68.9126 30.7845 68.2839C31.5569 67.6552 32.504 67.2798 33.497 67.2085C34.465 67.1684 35.41 67.5098 36.1292 68.1593C36.4596 68.4061 36.7375 68.7163 36.9466 69.0717C37.1613 69.4555 37.293 69.8802 37.3332 70.3182C37.3733 70.7561 37.3211 71.1977 37.1797 71.6142C37.1561 71.688 37.1178 71.7588 37.0972 71.8356C36.687 73.3829 35.5185 74.1211 34.1257 74.6084C33.8306 74.7088 33.5502 74.8269 33.2551 74.9184C32.9386 75.0172 32.612 75.0796 32.2814 75.1044C32.577 75.5784 33.048 75.916 33.5916 76.0434C34.302 76.208 35.0475 76.1214 35.7014 75.7984C36.5355 75.4027 37.2487 74.791 37.767 74.0266C37.8281 73.9124 37.9046 73.8071 37.9943 73.7136C38.0126 73.6996 38.0348 73.6916 38.0579 73.6908C38.081 73.6899 38.104 73.6962 38.1234 73.7088C38.1427 73.7214 38.1577 73.7397 38.1663 73.7612C38.1749 73.7827 38.1767 73.8063 38.1713 73.8288C38.1094 74.0532 37.9057 74.3721 37.8231 74.629C37.8195 74.6415 37.8202 74.6548 37.825 74.6668C37.8297 74.6789 37.8382 74.689 37.8493 74.6958C37.8604 74.7025 37.8733 74.7054 37.8862 74.704C37.8991 74.7026 37.9111 74.697 37.9205 74.6881C38.0161 74.5703 38.0954 74.4402 38.1565 74.3013L38.1742 74.2776C38.31 74.1093 38.4162 73.9469 38.5431 73.7727C38.5568 73.7543 38.5743 73.739 38.5944 73.7278C38.6144 73.7167 38.6366 73.7099 38.6595 73.7079C38.6824 73.706 38.7053 73.7089 38.7269 73.7165C38.7486 73.7241 38.7684 73.7362 38.785 73.752C38.8411 73.7993 38.8943 73.8495 38.9533 73.8908C39.3221 74.1566 39.3339 74.1625 39.1834 74.5552C39.1539 74.632 39.03 74.8505 38.9415 75.0336C38.9386 75.0416 38.9385 75.0504 38.9412 75.0586C38.9439 75.0667 38.9492 75.0738 38.9563 75.0785C38.9634 75.0833 38.972 75.0855 38.9805 75.0848C38.9891 75.0842 38.9971 75.0807 39.0034 75.0749C39.1805 74.8446 39.4401 74.5139 39.508 74.4046ZM32.0777 72.5C32.4967 72.5709 32.9364 72.3967 33.3909 72.2933C33.9824 72.137 34.4908 71.7583 34.8102 71.2362C34.8951 71.1339 34.9567 71.0145 34.9911 70.8861C35.0254 70.7577 35.0315 70.6234 35.0091 70.4924C34.9867 70.3614 34.9362 70.2368 34.8611 70.1271C34.786 70.0175 34.6882 69.9254 34.5742 69.8572C34.3419 69.6757 34.0633 69.5629 33.7702 69.5316C33.4771 69.5003 33.1812 69.5517 32.9158 69.68C32.5167 69.8641 32.1649 70.137 31.8872 70.4778C31.6095 70.8186 31.4133 71.2184 31.3134 71.6466C31.0833 72.4734 31.1393 72.5354 32.0777 72.5Z" fill="white"/>
<path d="M55.5604 82.8971C55.3774 83.0389 55.3716 83.3991 55.047 83.3076C54.7224 83.216 55.0027 82.9208 54.8699 82.7643C54.6781 82.7849 54.8493 83.0448 54.6841 83.0595C54.6079 83.0722 54.5299 83.0659 54.4568 83.0412C54.3837 83.0165 54.3179 82.9741 54.2651 82.9178C54.1863 82.8427 54.1262 82.7501 54.0898 82.6475C54.0534 82.5449 54.0416 82.4352 54.0554 82.3272C54.1705 81.4207 54.1912 80.5024 54.4656 79.6136C54.5554 79.2498 54.6079 78.8777 54.6221 78.5033C54.7254 77.1804 54.9584 75.8782 55.1856 74.576C55.3066 73.885 55.3539 73.1793 55.4395 72.4794C55.469 72.2491 55.5162 72.0188 55.5516 71.7885C55.587 71.5582 55.584 71.2953 55.947 71.4223C55.9735 71.4223 56.0207 71.4046 56.0532 71.3869C56.1771 71.3101 56.2775 71.127 56.4487 71.2924C56.4886 71.3196 56.5227 71.3545 56.549 71.395C56.5752 71.4356 56.5932 71.481 56.6017 71.5286C56.6102 71.5762 56.6091 71.625 56.5985 71.6721C56.5879 71.7193 56.5682 71.7639 56.5402 71.8032C56.5396 71.8101 56.5396 71.817 56.5402 71.8239C56.4989 71.9066 56.6346 71.9686 56.6759 71.883C56.7172 71.7973 56.7525 71.7294 56.7968 71.6556C56.841 71.5818 57.0919 71.4843 57.1715 71.443C57.5463 71.257 57.8738 71.4194 58.1925 71.5818C58.3165 71.6467 58.3047 71.8239 58.2959 71.9597C58.2752 72.2727 58.2575 72.5828 58.2221 72.8928C58.0185 74.6026 57.8237 76.3123 57.5965 78.019C57.446 79.1618 57.2395 80.2957 57.0654 81.4355C57.0034 81.84 56.9739 82.2505 56.9149 82.655C56.8773 82.8869 56.8229 83.1159 56.7525 83.3401C56.7201 83.4493 56.6611 83.5763 56.5224 83.5733C56.31 83.5733 56.1595 83.3371 55.9323 83.3755C55.528 83.4405 55.6607 83.0773 55.5604 82.8971Z" fill="white"/>
<path d="M93.6674 84.4178C93.8508 84.4507 94.0287 84.5094 94.1957 84.592C94.2399 84.6113 94.2776 84.6431 94.304 84.6835C94.3305 84.7239 94.3445 84.7711 94.3445 84.8194C94.3445 84.8677 94.3305 84.9149 94.304 84.9553C94.2776 84.9957 94.2399 85.0275 94.1957 85.0468C93.8604 85.1643 93.5002 85.1918 93.151 85.1265C90.3064 84.8105 87.922 83.4906 85.9361 81.5329C84.423 80.0588 83.4899 78.0896 83.307 75.9844C83.307 75.9401 83.307 75.8929 83.307 75.8486C82.8938 74.192 83.3069 72.6004 83.7967 71.0502C84.075 70.0977 84.5585 69.2178 85.2132 68.4724C85.4204 68.2122 85.6484 67.9692 85.8949 67.7459C85.9834 67.6337 85.9893 67.6515 86.246 67.4507C86.4197 67.2901 86.603 67.1402 86.7948 67.0018C87.543 66.3468 88.4066 65.8371 89.3414 65.4988C90.7431 65.0175 92.1301 64.5362 93.7147 64.4565C94.1145 64.4266 94.5159 64.4266 94.9157 64.4565C95.7006 64.5096 95.8305 64.7872 95.8983 64.8994C96.1108 65.236 95.5176 65.49 95.1193 65.5195C94.7209 65.549 93.9832 65.5343 93.4343 65.738C93.3753 65.7587 93.3989 65.8502 93.4608 65.8473C93.8356 65.8207 94.2045 65.7882 94.5792 65.7882C94.7858 65.7882 95.1695 65.7114 95.376 65.8236C95.7095 66.1366 95.6003 66.4615 95.1724 66.5057C94.8809 66.5099 94.5912 66.5526 94.3108 66.6327C94.2959 66.6327 94.2815 66.6386 94.271 66.6491C94.2605 66.6597 94.2547 66.6739 94.2547 66.6888C94.2547 66.7037 94.2605 66.718 94.271 66.7285C94.2815 66.739 94.2959 66.7449 94.3108 66.7449C94.6383 66.8247 95.0484 66.6622 95.3169 66.7863C95.5855 66.9103 95.5502 67.492 95.2816 67.6013C95.0885 67.6546 94.8846 67.6546 94.6915 67.6013C92.9859 67.306 91.2536 67.9615 89.7516 68.8208C88.7717 69.3293 87.9163 70.0482 87.2464 70.9262C86.5118 72.0549 86.1848 73.401 86.3198 74.7413C86.4379 76.3246 87.0364 77.8342 88.0351 79.0679C89.0339 80.3017 90.3854 81.2008 91.9087 81.6451C92.5634 81.7945 93.2096 81.9788 93.8445 82.1972C93.9574 82.2306 94.0616 82.2884 94.1498 82.3665C94.238 82.4445 94.3081 82.541 94.355 82.649C94.5586 83.3636 93.0006 83.0063 92.7202 82.9443C92.6699 82.9284 92.6187 82.9156 92.5668 82.9059C92.5407 82.9032 92.5144 82.9099 92.4929 82.9249C92.4713 82.94 92.4559 82.9623 92.4495 82.9877C92.443 83.0132 92.4459 83.0402 92.4577 83.0636C92.4695 83.0871 92.4893 83.1056 92.5136 83.1156C92.8471 83.2278 93.2041 83.1805 93.5287 83.2603C93.8533 83.34 94.119 83.2928 94.3668 83.5969C94.4554 83.7121 94.3667 83.9424 94.4818 84.0339C94.5033 84.0499 94.5204 84.0711 94.5314 84.0955C94.5423 84.1199 94.5467 84.1468 94.5444 84.1734C94.542 84.2001 94.5329 84.2257 94.5178 84.2478C94.5028 84.2699 94.4823 84.2878 94.4583 84.2997C94.2105 84.4207 93.9448 84.3174 93.6821 84.3646C93.6736 84.3701 93.6674 84.3786 93.6647 84.3884C93.662 84.3982 93.6629 84.4087 93.6674 84.4178Z" fill="white"/>
<path d="M108.252 80.6352C108.756 81.2523 107.697 81.4502 108.824 81.6864C108.567 82.3833 107.661 83.5438 106.835 83.4581C106.822 83.3919 106.822 83.3236 106.835 83.2573C106.839 83.2276 106.834 83.1974 106.821 83.1705C106.808 83.1436 106.787 83.1213 106.761 83.1064C106.735 83.0915 106.705 83.0847 106.675 83.0869C106.645 83.089 106.617 83.1001 106.593 83.1186C106.024 83.5615 105.708 83.8745 105.758 82.7081C105.295 82.8233 105.056 83.1481 104.985 82.4128C104.793 81.902 104.395 82.7672 104.504 81.9286C104.345 81.0073 105.625 80.585 106.127 79.956C106.301 79.8615 106.992 79.7316 106.885 80.1007C106.847 80.1805 106.747 80.2425 106.835 80.396C107.425 80.0742 107.868 79.7523 107.697 80.6913C107.906 80.8567 108.057 80.8744 108.252 80.6352Z" fill="white"/>
<path d="M104.882 76.7139C104.924 75.7738 104.732 74.838 104.321 73.9914C104.066 73.4764 103.77 72.9826 103.436 72.515C103.26 72.2767 103.062 72.0553 102.846 71.8535L102.828 71.8358L102.798 71.8122C102.533 71.5657 102.228 71.366 101.895 71.2216C100.532 70.51 98.4223 69.946 96.9793 70.4302C96.4131 70.5948 95.8711 70.8342 95.368 71.1419C94.5732 71.5744 93.8713 72.1594 93.3024 72.8634C92.743 73.6252 92.3996 74.524 92.3081 75.4649C92.2453 76.0495 92.2821 76.6407 92.4171 77.213C92.6043 77.9265 92.9309 78.5958 93.3782 79.1822C93.8254 79.7687 94.3844 80.2605 95.0228 80.6294C96.2958 81.4278 97.7976 81.7809 99.2928 81.6334C99.9694 81.5456 100.636 81.3943 101.285 81.1816C102.445 80.8344 103.448 80.0943 104.123 79.088C104.457 78.6617 104.688 78.1648 104.799 77.6352C104.839 77.4402 104.867 77.243 104.885 77.0446C104.895 76.9346 104.894 76.8238 104.882 76.7139ZM102.126 76.7937C102.077 77.1572 101.987 77.5139 101.857 77.8567C101.703 78.1778 101.442 78.4356 101.119 78.586C100.806 78.7439 100.474 78.8601 100.131 78.9315C99.1916 79.1969 98.2005 79.2182 97.2508 78.9935C96.6102 78.8234 96.0296 78.4777 95.5746 77.9955C95.3006 77.7125 95.1061 77.3621 95.011 76.9797C94.9341 76.5863 94.9585 76.1799 95.0819 75.7985C95.2326 75.1668 95.5602 74.5911 96.0262 74.139C96.437 73.7681 96.8804 73.435 97.3511 73.1439L97.4336 73.0967C97.5458 73.0347 97.658 72.9756 97.7731 72.9195L97.8528 72.8841L98.0003 72.825C99.5702 72.2758 100.594 73.5307 101.329 74.269C101.626 74.6138 101.85 75.0154 101.987 75.4493C102.125 75.8832 102.173 76.3406 102.129 76.7937H102.126Z" fill="white"/>
</svg>
